<svg width="80" height="80" viewBox="0 0 80 80" fill="none" xmlns="http://www.w3.org/2000/svg">
<path d="M59.2903 17H57.8065C57.396 17 57.0645 17.3326 57.0645 17.7419V22.9355H20.7097C18.6643 22.9355 17 24.5998 17 26.6452V59.2903C17 61.3357 18.6643 63 20.7097 63H22.1935C22.604 63 22.9355 62.6685 22.9355 62.2581V57.0645H59.2903C61.3357 57.0645 63 55.4002 63 53.3548V20.7097C63 18.6643 61.3357 17 59.2903 17ZM21.4516 61.5161H20.7097C19.4827 61.5161 18.4839 60.5173 18.4839 59.2903V29.6115C19.1041 30.0773 19.875 30.3548 20.7097 30.3548H21.4516V61.5161ZM59.2903 55.5806H22.9355V29.6129C22.9355 29.2035 22.604 28.871 22.1935 28.871H20.7097C19.4827 28.871 18.4839 27.8722 18.4839 26.6452C18.4839 25.4181 19.4827 24.4194 20.7097 24.4194H57.0645V50.3871C57.0645 50.7976 57.396 51.129 57.8065 51.129H59.2903C60.5173 51.129 61.5161 52.1278 61.5161 53.3548C61.5161 54.5819 60.5173 55.5806 59.2903 55.5806ZM61.5161 50.3885C60.8959 49.9219 60.125 49.6452 59.2903 49.6452H58.5484V18.4839H59.2903C60.5173 18.4839 61.5161 19.4827 61.5161 20.7097V50.3885Z" fill="white"/>
<path d="M54.8387 34.8065H45.9355C45.525 34.8065 45.1936 35.139 45.1936 35.5484V36.2903H42.9677C42.5573 36.2903 42.2258 36.6229 42.2258 37.0323V40H34.8065V38.5161H35.5484C35.9588 38.5161 36.2903 38.1836 36.2903 37.7742V36.8957C36.2903 36.2733 36.6167 35.6708 37.1873 35.2412C38.5027 34.2507 39.2581 32.74 39.2581 31.0968C39.2581 28.233 36.9276 25.9032 34.0645 25.9032C31.2015 25.9032 28.871 28.233 28.871 31.0968C28.871 32.74 29.6263 34.2507 30.9417 35.2412C31.5123 35.6708 31.8387 36.274 31.8387 36.8957V37.7742C31.8387 38.1836 32.1702 38.5161 32.5806 38.5161H33.3226V40.7419C33.3226 41.1524 33.6541 41.4839 34.0645 41.4839H42.2258V51.129H39.2581V44.4516C39.2581 44.0412 38.9266 43.7097 38.5161 43.7097H34.8065V42.9677C34.8065 42.5573 34.475 42.2258 34.0645 42.2258H25.1613C24.7508 42.2258 24.4194 42.5573 24.4194 42.9677V45.9355C24.4194 46.3459 24.7508 46.6774 25.1613 46.6774H34.0645C34.475 46.6774 34.8065 46.3459 34.8065 45.9355V45.1936H37.7742V51.129H34.8065V50.3871C34.8065 49.9766 34.475 49.6452 34.0645 49.6452H25.1613C24.7508 49.6452 24.4194 49.9766 24.4194 50.3871V53.3548C24.4194 53.7653 24.7508 54.0968 25.1613 54.0968H34.0645C34.475 54.0968 34.8065 53.7653 34.8065 53.3548V52.6129H42.9677C43.3782 52.6129 43.7097 52.2814 43.7097 51.871V45.1936H45.1936V45.9355C45.1936 46.3459 45.525 46.6774 45.9355 46.6774H54.8387C55.2492 46.6774 55.5806 46.3459 55.5806 45.9355V42.9677C55.5806 42.5573 55.2492 42.2258 54.8387 42.2258H45.9355C45.525 42.2258 45.1936 42.5573 45.1936 42.9677V43.7097H43.7097V37.7742H45.1936V38.5161C45.1936 38.9255 45.525 39.2581 45.9355 39.2581H54.8387C55.2492 39.2581 55.5806 38.9255 55.5806 38.5161V35.5484C55.5806 35.139 55.2492 34.8065 54.8387 34.8065ZM31.8344 34.0562C30.8943 33.3487 30.3548 32.2698 30.3548 31.0968C30.3548 29.0514 32.0191 27.3871 34.0645 27.3871C36.1099 27.3871 37.7742 29.0514 37.7742 31.0968C37.7742 32.2698 37.2348 33.3487 36.2947 34.0562C35.3488 34.7681 34.8065 35.8027 34.8065 36.8957V37.0323H33.3226V36.8957C33.3226 35.8027 32.7803 34.7681 31.8344 34.0562ZM33.3226 45.1936H25.9032V43.7097H33.3226V45.1936ZM33.3226 52.6129H25.9032V51.129H33.3226V52.6129ZM46.6774 43.7097H54.0968V45.1936H46.6774V43.7097ZM54.0968 37.7742H46.6774V36.2903H54.0968V37.7742Z" fill="white"/>
<path d="M40.5612 28.892L43.5289 28.1511L43.8886 29.5908L40.9205 30.3317L40.5612 28.892Z" fill="white"/>
<path d="M40.5601 33.3008L40.9198 31.8612L43.8876 32.6031L43.5275 34.0428L40.5601 33.3008Z" fill="white"/>
<path d="M24.2382 29.5908L24.598 28.1511L27.5657 28.8931L27.206 30.3324L24.2382 29.5908Z" fill="white"/>
<path d="M24.2389 32.6017L27.207 31.8608L27.5664 33.3005L24.5983 34.0413L24.2389 32.6017Z" fill="white"/>
<circle cx="40" cy="40" r="37.5" stroke="#989898" stroke-width="5"/>
</svg>
