<svg width="80" height="80" viewBox="0 0 80 80" fill="none" xmlns="http://www.w3.org/2000/svg">
<g clip-path="url(#clip0_1:111)">
<path d="M49.8246 44.4888H43.2828C42.9144 44.4888 42.616 44.7873 42.616 45.1556C42.616 45.5239 42.9145 45.8224 43.2828 45.8224H49.8246C50.1929 45.8224 50.4914 45.5239 50.4914 45.1556C50.4914 44.7873 50.1928 44.4888 49.8246 44.4888Z" fill="white"/>
<path d="M45.483 47.4167H43.2828C42.9144 47.4167 42.616 47.7152 42.616 48.0835C42.616 48.4517 42.9145 48.7503 43.2828 48.7503H45.483C45.8513 48.7503 46.1498 48.4517 46.1498 48.0835C46.1498 47.7152 45.8513 47.4167 45.483 47.4167Z" fill="white"/>
<path d="M59.1566 53.7795H56.274V35.6534C56.274 35.2852 55.9754 34.9866 55.6072 34.9866C55.2388 34.9866 54.9403 35.2852 54.9403 35.6534V53.7796H52.425V51.3393C53.3041 51.0616 53.9433 50.2385 53.9433 49.2687V43.9608C53.9433 42.991 53.3041 42.1678 52.425 41.8901V23.2745H53.74C54.4019 23.2745 54.9403 23.8129 54.9403 24.4748V32.528C54.9403 32.8962 55.2389 33.1948 55.6072 33.1948C55.9755 33.1948 56.274 32.8962 56.274 32.528V24.4749C56.274 23.0776 55.1372 21.9409 53.7399 21.9409H47.8377C47.6234 21.4573 47.1397 21.1188 46.5777 21.1188H42.7873C42.439 19.8866 41.299 19 39.9869 19C38.66 19 37.5324 19.8909 37.1869 21.1188H33.3962C32.8342 21.1188 32.3505 21.4573 32.1362 21.9409H26.2339C24.8367 21.9409 23.6999 23.0776 23.6999 24.4749V28.5472C20.8448 29.0656 18.6725 31.5685 18.6725 34.5708C18.6725 37.5731 20.8448 40.076 23.6999 40.5945V59.0151C23.6999 60.4123 24.8367 61.5491 26.2339 61.5491H33.9343C34.2558 62.2119 34.6955 62.8184 35.239 63.3312C35.507 63.5841 35.929 63.5718 36.1817 63.3037C36.4344 63.0358 36.4221 62.6138 36.1542 62.3611C35.1845 61.4462 34.6504 60.2086 34.6504 58.8761C34.6504 56.2348 36.7993 54.0859 39.4406 54.0859C42.082 54.0859 44.2309 56.2348 44.2309 58.8761C44.2309 61.5174 42.082 63.6663 39.4406 63.6663C39.1484 63.6663 38.856 63.6399 38.5713 63.5877C38.2095 63.5215 37.8617 63.7613 37.7953 64.1236C37.729 64.4858 37.9689 64.8332 38.3311 64.8996C38.6948 64.9662 39.068 65 39.4405 65C41.8594 65 43.9548 63.5901 44.9492 61.5492H46.5681C46.7107 62.6093 47.6206 63.4295 48.719 63.4295H59.1564C60.3535 63.4295 61.3273 62.4556 61.3273 61.2585V55.9506C61.3276 54.7534 60.3537 53.7795 59.1566 53.7795ZM52.6096 49.2687C52.6096 49.7304 52.2341 50.106 51.7724 50.106H41.3349C40.8732 50.106 40.4977 49.7304 40.4977 49.2687V43.9608C40.4977 43.499 40.8732 43.1235 41.3349 43.1235H51.7725C52.2342 43.1235 52.6097 43.499 52.6097 43.9608V49.2687H52.6096ZM39.9869 20.3337C40.5608 20.3337 41.0729 20.6473 41.3484 21.1188H38.6238C38.8973 20.6481 39.4068 20.3337 39.9869 20.3337ZM33.3518 22.497C33.3518 22.4725 33.3717 22.4525 33.3963 22.4525H46.5777C46.6022 22.4525 46.6222 22.4725 46.6222 22.497V24.2586C46.6222 24.2831 46.6022 24.303 46.5777 24.303H33.3963C33.3717 24.303 33.3518 24.2831 33.3518 24.2586V22.497ZM35.3666 25.6367H44.6072V25.7875C44.6072 26.531 44.0233 27.1395 43.3055 27.1441C43.0901 27.1468 42.8886 27.0973 42.7007 27.0009C42.0254 26.6543 41.2402 26.6508 40.601 26.9915C40.411 27.0928 40.2043 27.1441 39.9869 27.1441C39.7695 27.1441 39.5629 27.0928 39.3729 26.9915C38.7334 26.6508 37.9484 26.6543 37.2732 27.0009C37.0852 27.0973 36.8788 27.1456 36.6683 27.1441C35.9505 27.1395 35.3666 26.531 35.3666 25.7876V25.6367ZM20.0062 34.5708C20.0062 31.9295 22.1551 29.7806 24.7964 29.7806C27.4377 29.7806 29.5866 31.9295 29.5866 34.5708C29.5866 37.2121 27.4377 39.361 24.7964 39.361C22.1551 39.361 20.0062 37.2121 20.0062 34.5708ZM27.2662 46.7085C27.2662 44.0672 29.4151 41.9183 32.0564 41.9183C34.6977 41.9183 36.8466 44.0672 36.8466 46.7085C36.8466 49.3498 34.6977 51.4987 32.0564 51.4987C29.4151 51.4987 27.2662 49.3498 27.2662 46.7085ZM26.234 60.2155C25.5721 60.2155 25.0337 59.677 25.0337 59.0151V40.6888C25.9355 40.6542 26.7874 40.4238 27.549 40.0388V42.5683C26.5462 43.6592 25.9326 45.1134 25.9326 46.7085C25.9326 48.3037 26.5461 49.7578 27.549 50.8488V54.3286C27.549 54.9415 28.0476 55.4401 28.6605 55.4401H34.3745C33.7074 56.4206 33.3169 57.6035 33.3169 58.8762C33.3169 59.3295 33.3697 59.7785 33.4683 60.2156H26.234V60.2155ZM35.6061 54.1064H28.8827V51.9442C29.8088 52.5077 30.8955 52.8325 32.0565 52.8325C35.4333 52.8325 38.1804 50.0853 38.1804 46.7085C38.1804 43.3318 35.4333 40.5846 32.0565 40.5846C30.8955 40.5846 29.8088 40.9094 28.8827 41.4729V39.1274C30.1325 38.0055 30.9204 36.3787 30.9204 34.5709C30.9204 31.2736 28.3008 28.5782 25.0337 28.453V24.4749C25.0337 23.813 25.5721 23.2746 26.234 23.2746H27.549V26.7259C27.549 27.0942 27.8475 27.3928 28.2158 27.3928C28.584 27.3928 28.8826 27.0942 28.8826 26.7259V23.2746H32.018V24.2586C32.018 25.0185 32.6362 25.6368 33.3962 25.6368H34.0329V25.7876C34.0329 27.2617 35.2113 28.4685 36.6597 28.4778C37.0849 28.481 37.5067 28.3801 37.8821 28.1875C38.1688 28.0403 38.4917 28.0332 38.7458 28.1686C39.1255 28.3709 39.5547 28.4779 39.987 28.4779C40.4193 28.4779 40.8485 28.371 41.2281 28.1686C41.4823 28.0333 41.8052 28.0404 42.0919 28.1876C42.4674 28.3802 42.891 28.4813 43.3141 28.4778C44.7626 28.4685 45.941 27.2617 45.941 25.7875V25.6367H46.5777C47.3376 25.6367 47.9559 25.0185 47.9559 24.2585V23.2746H51.0913V41.7898H41.3349C40.1379 41.7898 39.164 42.7637 39.164 43.9608V49.2687C39.164 50.4658 40.138 51.4397 41.3349 51.4397H51.0913V53.7796H48.7193C48.2998 53.7796 47.908 53.8995 47.5756 54.1064H43.2755C42.2251 53.2602 40.8915 52.7521 39.4408 52.7521C37.9901 52.7521 36.6564 53.2602 35.6061 54.1064ZM44.5071 55.44H46.6094C46.5698 55.6038 46.5482 55.7747 46.5482 55.9505V60.2155H45.4154C45.512 59.784 45.5647 59.3363 45.5647 58.8761C45.5647 57.6034 45.1742 56.4205 44.5071 55.44ZM59.9939 61.2585C59.9939 61.7202 59.6183 62.0957 59.1566 62.0957H48.7193C48.2576 62.0957 47.8819 61.7202 47.8819 61.2585V55.9505C47.8819 55.4888 48.2576 55.1132 48.7193 55.1132H59.1567C59.6184 55.1132 59.994 55.4888 59.994 55.9505V61.2585H59.9939Z" fill="white"/>
<path d="M57.2088 56.4786H50.6671C50.2988 56.4786 50.0003 56.7771 50.0003 57.1454C50.0003 57.5137 50.2989 57.8122 50.6671 57.8122H57.2088C57.5772 57.8122 57.8756 57.5137 57.8756 57.1454C57.8756 56.7771 57.5772 56.4786 57.2088 56.4786Z" fill="white"/>
<path d="M55.7025 59.4064H50.6671C50.2988 59.4064 50.0003 59.705 50.0003 60.0732C50.0003 60.4415 50.2989 60.7401 50.6671 60.7401H55.7025C56.0709 60.7401 56.3693 60.4415 56.3693 60.0732C56.3693 59.705 56.0709 59.4064 55.7025 59.4064Z" fill="white"/>
<path d="M46.6832 37.2249V31.9169C46.6832 30.7198 45.7093 29.7459 44.5122 29.7459H34.0748C32.8777 29.7459 31.9039 30.7198 31.9039 31.9169V37.2249C31.9039 38.422 32.8778 39.3959 34.0748 39.3959H44.5122C45.7094 39.3958 46.6832 38.422 46.6832 37.2249ZM33.2377 37.2249V31.9169C33.2377 31.4552 33.6132 31.0797 34.0749 31.0797H44.5123C44.974 31.0797 45.3497 31.4552 45.3497 31.9169V37.2249C45.3497 37.6866 44.974 38.0621 44.5123 38.0621H34.0748C33.6132 38.0621 33.2377 37.6865 33.2377 37.2249Z" fill="white"/>
<path d="M42.5644 32.4449H36.0227C35.6544 32.4449 35.3559 32.7435 35.3559 33.1117C35.3559 33.48 35.6544 33.7786 36.0227 33.7786H42.5644C42.9327 33.7786 43.2312 33.48 43.2312 33.1117C43.2312 32.7435 42.9326 32.4449 42.5644 32.4449Z" fill="white"/>
<path d="M42.5644 35.3728H36.0227C35.6544 35.3728 35.3559 35.6713 35.3559 36.0396C35.3559 36.4079 35.6544 36.7064 36.0227 36.7064H42.5644C42.9327 36.7064 43.2312 36.4079 43.2312 36.0396C43.2312 35.6713 42.9326 35.3728 42.5644 35.3728Z" fill="white"/>
<path d="M34.1408 49.3903C34.1363 49.0221 33.8351 48.7287 33.4657 48.7319C32.9781 48.738 32.4626 48.7422 32.0189 48.7436C32.3074 48.3559 32.6951 47.8236 33.2044 47.0958C33.5487 46.604 33.7733 46.1381 33.8723 45.7111C33.8774 45.6893 33.8814 45.6672 33.8842 45.6451L33.9104 45.4396C33.914 45.4116 33.9158 45.3833 33.9158 45.3551C33.9158 44.2381 33.007 43.3293 31.89 43.3293C30.9242 43.3293 30.0882 44.0164 29.9022 44.9632C29.8312 45.3246 30.0666 45.675 30.428 45.7461C30.7895 45.8171 31.1399 45.5817 31.2109 45.2202C31.2744 44.8974 31.56 44.663 31.8901 44.663C32.2598 44.663 32.5627 44.9545 32.5812 45.3197L32.566 45.4392C32.5015 45.6903 32.345 45.9978 32.1118 46.3312C31.2713 47.5321 30.7698 48.1887 30.5005 48.5414C30.1644 48.9815 29.9957 49.2024 30.1082 49.568C30.1748 49.7843 30.3384 49.9502 30.5569 50.0229C30.6453 50.0525 32.7256 50.075 33.4825 50.0655C33.8506 50.0608 34.1454 49.7586 34.1408 49.3903Z" fill="white"/>
<path d="M25.4418 37.493V32.1821C25.4418 31.8139 25.1433 31.5153 24.775 31.5153H23.6397C23.2715 31.5153 22.9729 31.8139 22.9729 32.1821C22.9729 32.5504 23.2715 32.8489 23.6397 32.8489H24.1081V37.4929C24.1081 37.8612 24.4066 38.1597 24.7749 38.1597C25.1433 38.1599 25.4418 37.8613 25.4418 37.493Z" fill="white"/>
<path d="M39.3996 62.3448C40.5167 62.3448 41.4254 61.4361 41.4254 60.319C41.4254 59.7966 41.2266 59.3198 40.9007 58.9602C41.2266 58.6005 41.4254 58.1236 41.4254 57.6013C41.4254 56.4842 40.5167 55.5755 39.3996 55.5755C38.4338 55.5755 37.5978 56.2626 37.4119 57.2093C37.3409 57.5706 37.5763 57.9211 37.9376 57.9922C38.299 58.0628 38.6495 57.8278 38.7205 57.4664C38.7839 57.1435 39.0696 56.9092 39.3996 56.9092C39.7813 56.9092 40.0917 57.2197 40.0917 57.6013C40.0917 57.9828 39.7812 58.2933 39.3996 58.2933C39.0314 58.2933 38.7328 58.5919 38.7328 58.9602C38.7328 59.3284 39.0314 59.627 39.3996 59.627C39.7813 59.627 40.0917 59.9375 40.0917 60.319C40.0917 60.7007 39.7812 61.0111 39.3996 61.0111C39.0563 61.0111 38.7616 60.7554 38.7143 60.4165C38.7098 60.3845 38.7076 60.3517 38.7076 60.319C38.7076 59.9508 38.409 59.6522 38.0408 59.6522C37.539 59.6468 37.284 60.1536 37.3934 60.6008C37.5321 61.5951 38.3946 62.3448 39.3996 62.3448Z" fill="white"/>
</g>
<circle cx="40" cy="40" r="37.5" stroke="#989898" stroke-width="5"/>
<defs>
<clipPath id="clip0_1:111">
<rect width="46" height="46" fill="white" transform="translate(17 19)"/>
</clipPath>
</defs>
</svg>
