<svg width="80" height="80" viewBox="0 0 80 80" fill="none" xmlns="http://www.w3.org/2000/svg">
<circle cx="40" cy="40" r="37.5" stroke="#989898" stroke-width="5"/>
<path d="M39.9999 49.6451C36.3177 49.6451 33.3225 52.6411 33.3225 56.3226C33.3225 60.0041 36.3177 63 39.9999 63C43.6822 63 46.6773 60.0041 46.6773 56.3226C46.6773 52.6411 43.6822 49.6451 39.9999 49.6451ZM37.1635 60.6681C37.5337 59.4357 38.6808 58.5484 39.9999 58.5484C41.3191 58.5484 42.4661 59.4357 42.8363 60.6681C42.0195 61.2023 41.0461 61.5161 39.9999 61.5161C38.9538 61.5161 37.9804 61.2023 37.1635 60.6681ZM38.5161 55.5806C38.5161 54.7623 39.1816 54.0968 39.9999 54.0968C40.8183 54.0968 41.4838 54.7623 41.4838 55.5806C41.4838 56.399 40.8183 57.0645 39.9999 57.0645C39.1816 57.0645 38.5161 56.399 38.5161 55.5806ZM44.0086 59.6205C43.605 58.7739 42.9499 58.0787 42.1374 57.6291C42.6494 57.0964 42.9677 56.376 42.9677 55.5806C42.9677 53.9439 41.6366 52.6129 39.9999 52.6129C38.3632 52.6129 37.0322 53.9439 37.0322 55.5806C37.0322 56.376 37.3505 57.0964 37.8624 57.6299C37.05 58.0795 36.3956 58.7739 35.9913 59.6212C35.2515 58.7227 34.8064 57.5735 34.8064 56.3226C34.8064 53.4587 37.1368 51.129 39.9999 51.129C42.8631 51.129 45.1935 53.4587 45.1935 56.3226C45.1935 57.5735 44.7483 58.7227 44.0086 59.6205Z" fill="#ECECEC"/>
<path d="M40 17C36.3178 17 33.3226 19.9959 33.3226 23.6774C33.3226 24.5418 33.4932 25.3653 33.793 26.1243C33.4109 25.9908 33.0073 25.9032 32.5806 25.9032C31.3535 25.9032 30.3548 26.9026 30.3548 28.129V29.9631C30.3548 31.3179 29.6329 32.5925 28.4711 33.2899C27.3737 33.9488 26.5465 34.9801 26.1429 36.1931L26.1258 36.2451L17 35.4846V48.1613H40C41.2272 48.1613 42.2258 47.1626 42.2258 45.9355C42.2258 45.6424 42.1657 45.3642 42.0626 45.1082C43.0085 44.8508 43.7097 43.9938 43.7097 42.9677C43.7097 42.3957 43.4864 41.8786 43.131 41.4839C43.4871 41.0892 43.7097 40.572 43.7097 40C43.7097 39.428 43.4864 38.9108 43.131 38.5161C43.4871 38.1214 43.7097 37.6043 43.7097 37.0323C43.7097 35.8058 42.7118 34.8064 41.4846 34.8064H37.7742C36.9558 34.8064 36.2903 34.1409 36.2903 33.3226V29.6129C36.2903 29.4705 36.2636 29.3354 36.248 29.1974C37.3186 29.9267 38.6096 30.3548 40 30.3548C43.6822 30.3548 46.6774 27.3589 46.6774 23.6774C46.6774 19.9959 43.6822 17 40 17ZM25.9032 46.6774H18.4839V37.0968L25.9032 37.7148V46.6774ZM37.7742 36.2903H41.4846C41.8934 36.2903 42.2258 36.6234 42.2258 37.0323C42.2258 37.4411 41.8934 37.7742 41.4839 37.7742H36.2903V39.2581H41.4839C41.8934 39.2581 42.2258 39.5912 42.2258 40C42.2258 40.4088 41.8934 40.7419 41.4839 40.7419H36.2903V42.2258H41.4839C41.8934 42.2258 42.2258 42.5589 42.2258 42.9677C42.2258 43.3765 41.8934 43.7097 41.4839 43.7097H36.2903V45.1935H40C40.4095 45.1935 40.7419 45.5259 40.7419 45.9355C40.7419 46.345 40.4095 46.6774 40 46.6774H27.3871V37.1525L27.5511 36.6628C27.8434 35.7851 28.4406 35.0394 29.2353 34.5631C30.8415 33.5993 31.8395 31.8365 31.8395 29.9638V28.1298C31.8395 27.721 32.1726 27.3878 32.5814 27.3878C33.8085 27.3878 34.8072 28.3865 34.8072 29.6136V33.3233C34.8065 34.9593 36.1375 36.2903 37.7742 36.2903ZM40 28.871C37.1369 28.871 34.8065 26.5413 34.8065 23.6774C34.8065 20.8135 37.1369 18.4839 40 18.4839C42.8631 18.4839 45.1935 20.8135 45.1935 23.6774C45.1935 26.5413 42.8631 28.871 40 28.871Z" fill="#ECECEC"/>
<path d="M56.3226 33.3226C52.6403 33.3226 49.6451 36.3185 49.6451 40C49.6451 43.6815 52.6403 46.6774 56.3226 46.6774C60.0048 46.6774 63 43.6815 63 40C63 36.3185 60.0048 33.3226 56.3226 33.3226ZM56.3226 45.1936C53.4594 45.1936 51.129 42.8639 51.129 40C51.129 37.1361 53.4594 34.8065 56.3226 34.8065C59.1857 34.8065 61.5161 37.1361 61.5161 40C61.5161 42.8639 59.1857 45.1936 56.3226 45.1936Z" fill="#ECECEC"/>
<path d="M58.5484 37.7742V40.742H57.0645V36.2903H55.5807V40.742H54.0968V39.2581H52.6129V42.2258H60.0323V37.7742H58.5484Z" fill="#ECECEC"/>
<path d="M39.2581 22.9355H40.7419V24.4194H39.2581V22.9355Z" fill="#ECECEC"/>
<path d="M42.2258 22.9355H43.7097V24.4194H42.2258V22.9355Z" fill="#ECECEC"/>
<path d="M36.2902 22.9355H37.774V24.4194H36.2902V22.9355Z" fill="#ECECEC"/>
<path d="M55.6934 30.0069L56.6846 31.5865L57.7916 26.0487L56.3366 25.7571L55.939 27.7477C54.0218 25.2103 51.6135 23.3117 48.4751 21.8434L47.8467 23.1878C51.2937 24.8 53.7874 26.9672 55.6934 30.0069Z" fill="#ECECEC"/>
<path d="M21.8434 31.5248L23.1885 32.1533C24.7993 28.7077 26.9664 26.2141 30.0069 24.3066L31.5857 23.3161L26.0487 22.2084L25.7578 23.6626L27.7484 24.061C25.2095 25.9789 23.3109 28.3872 21.8434 31.5248Z" fill="#ECECEC"/>
<path d="M24.3066 49.9931L23.3153 48.4135L22.2084 53.9513L23.6633 54.2429L24.061 52.2523C25.9781 54.7897 28.3865 56.6883 31.5249 58.1566L32.154 56.8122C28.7062 55.2 26.2126 53.0328 24.3066 49.9931Z" fill="#ECECEC"/>
<path d="M58.1565 48.4751L56.8114 47.8467C55.2007 51.2923 53.0335 53.7859 49.993 55.6934L48.4142 56.6839L53.9513 57.7916L54.2428 56.3367L52.2522 55.9383C54.7904 54.0211 56.689 51.6128 58.1565 48.4751Z" fill="#ECECEC"/>
</svg>
