<svg width="80" height="80" viewBox="0 0 80 80" fill="none" xmlns="http://www.w3.org/2000/svg">
<path d="M59.4063 26.7379C59.4105 26.5941 59.3579 26.4545 59.2598 26.3493C59.1617 26.244 59.0261 26.1817 58.8824 26.1758H47.6367V25.0078H52.0419C52.3396 25.0078 52.5781 24.8077 52.5781 24.51V21.6577C52.5774 20.8558 52.2589 20.0868 51.6924 19.5191C51.126 18.9514 50.3577 18.6314 49.5557 18.6289H31.6288C30.8621 18.624 30.1247 18.9236 29.5788 19.462C29.0329 20.0004 28.723 20.7335 28.7173 21.5002L28.6918 26.1758H21.1176C20.9738 26.1817 20.8383 26.244 20.7402 26.3493C20.6422 26.4545 20.5895 26.5942 20.5938 26.7379V56.8731C20.5938 57.1709 20.8198 57.4414 21.1176 57.4414H34.283L32.9166 62.293H30.5275C30.3846 62.293 30.2474 62.3498 30.1464 62.4509C30.0453 62.5519 29.9885 62.6891 29.9885 62.832C29.9885 62.975 30.0453 63.1121 30.1464 63.2132C30.2474 63.3143 30.3846 63.3711 30.5275 63.3711H49.4725C49.6155 63.3711 49.7526 63.3143 49.8537 63.2132C49.9548 63.1121 50.0116 62.975 50.0116 62.832C50.0116 62.6891 49.9548 62.5519 49.8537 62.4509C49.7526 62.3498 49.6155 62.293 49.4725 62.293H47.0835L45.717 57.4414H58.8824C59.18 57.4414 59.4063 57.1709 59.4063 56.8731V51.1547V50.0766V26.7379ZM42.0878 40.9281C42.0878 39.936 42.382 38.9662 42.9332 38.1412C43.4844 37.3163 44.2678 36.6734 45.1844 36.2937C46.101 35.914 47.1096 35.8147 48.0827 36.0083C49.0557 36.2018 49.9495 36.6796 50.6511 37.3811C51.3526 38.0826 51.8304 38.9764 52.0239 39.9495C52.2175 40.9226 52.1181 41.9312 51.7385 42.8478C51.3588 43.7644 50.7159 44.5478 49.8909 45.099C49.066 45.6502 48.0962 45.9444 47.1041 45.9444C45.7742 45.9428 44.4992 45.4138 43.5588 44.4734C42.6184 43.533 42.0894 42.258 42.0878 40.9281V40.9281ZM49.551 19.707H49.5548C50.0724 19.7096 50.5679 19.9174 50.9326 20.2847C51.2972 20.6521 51.5013 21.1492 51.5 21.6668V23.9297H47.6367V21.6656C47.6367 20.5915 48.4692 19.707 49.5424 19.707H49.551ZM29.7954 21.5147C29.7997 21.0321 29.995 20.5709 30.3387 20.2321C30.6823 19.8933 31.1462 19.7045 31.6288 19.707H47.2315C46.7705 20.2461 46.5586 20.9448 46.5586 21.6668V34.8622C46.0975 34.8981 45.6429 34.9933 45.2062 35.1456C45.097 35.039 44.9503 34.9797 44.7977 34.9805H31.3991C31.2561 34.9805 31.119 35.0373 31.0179 35.1384C30.9168 35.2394 30.86 35.3766 30.86 35.5195C30.86 35.6625 30.9168 35.7996 31.0179 35.9007C31.119 36.0018 31.2561 36.0586 31.3991 36.0586H43.4471C43.003 36.3964 42.6031 36.7888 42.2569 37.2266H31.3991C31.2561 37.2266 31.119 37.2834 31.0179 37.3844C30.9168 37.4855 30.86 37.6227 30.86 37.7656C30.86 37.9086 30.9168 38.0457 31.0179 38.1468C31.119 38.2479 31.2561 38.3047 31.3991 38.3047H41.5983C41.4241 38.6806 41.2841 39.0715 41.1801 39.4727H31.3991C31.2561 39.4727 31.119 39.5294 31.0179 39.6305C30.9168 39.7316 30.86 39.8687 30.86 40.0117C30.86 40.1547 30.9168 40.2918 31.0179 40.3929C31.119 40.494 31.2561 40.5508 31.3991 40.5508H41.0204C41.0138 40.7305 41.0097 40.7968 41.0097 40.914C41.0096 41.5851 41.1202 42.2516 41.3369 42.8867C36.9685 42.8867 31.4138 42.8876 29.6796 42.8873L29.7954 21.5147ZM21.6719 27.2539H28.686L28.5989 43.4175C28.598 43.5627 28.6544 43.7024 28.7557 43.8064C28.8057 43.8571 28.8651 43.8975 28.9307 43.9252C28.9962 43.953 29.0666 43.9675 29.1378 43.9681C29.1378 43.9681 36.5382 43.9705 41.8281 43.9705C42.3626 44.8973 43.1315 45.6671 44.0576 46.2026C44.9838 46.7382 46.0346 47.0206 47.1044 47.0216C50.4646 47.0216 53.2178 44.288 53.2178 40.9276C53.2178 37.7337 50.6918 35.1081 47.6371 34.8553V27.2539H58.3281V50.0742H21.6719V27.2539ZM45.9637 62.293H34.0364L35.4027 57.4414H44.5973L45.9637 62.293ZM58.3281 56.3633H21.6719V51.1523H58.3281V56.3633Z" fill="white"/>
<path d="M31.5391 27.8125H44.9376C45.0806 27.8125 45.2177 27.7557 45.3188 27.6546C45.4199 27.5535 45.4767 27.4164 45.4767 27.2734C45.4767 27.1305 45.4199 26.9934 45.3188 26.8923C45.2177 26.7912 45.0806 26.7344 44.9376 26.7344H31.5391C31.3961 26.7344 31.259 26.7912 31.1579 26.8923C31.0568 26.9934 31 27.1305 31 27.2734C31 27.4164 31.0568 27.5535 31.1579 27.6546C31.259 27.7557 31.3961 27.8125 31.5391 27.8125V27.8125Z" fill="white"/>
<path d="M31.5391 25.0781H44.9376C45.0806 25.0781 45.2177 25.0213 45.3188 24.9202C45.4199 24.8191 45.4767 24.682 45.4767 24.5391C45.4767 24.3961 45.4199 24.259 45.3188 24.1579C45.2177 24.0568 45.0806 24 44.9376 24H31.5391C31.3961 24 31.259 24.0568 31.1579 24.1579C31.0568 24.259 31 24.3961 31 24.5391C31 24.682 31.0568 24.8191 31.1579 24.9202C31.259 25.0213 31.3961 25.0781 31.5391 25.0781V25.0781Z" fill="white"/>
<path d="M46.1758 42.5475C46.2257 42.598 46.2852 42.6381 46.3507 42.6654C46.4162 42.6928 46.4865 42.707 46.5576 42.707H46.5586C46.6294 42.7071 46.6995 42.6932 46.7649 42.6661C46.8303 42.6391 46.8898 42.5994 46.9398 42.5494L49.4206 40.0687C49.4718 40.0189 49.5125 39.9594 49.5405 39.8937C49.5685 39.828 49.5832 39.7574 49.5837 39.686C49.5841 39.6146 49.5704 39.5438 49.5433 39.4778C49.5162 39.4117 49.4763 39.3517 49.4258 39.3012C49.3753 39.2507 49.3153 39.2108 49.2492 39.1837C49.1831 39.1566 49.1123 39.1429 49.0409 39.1434C48.9695 39.1438 48.8989 39.1585 48.8332 39.1865C48.7676 39.2145 48.7081 39.2553 48.6583 39.3065L46.5607 41.4043L45.5516 40.3852C45.4506 40.2857 45.3144 40.23 45.1726 40.2302C45.0308 40.2304 44.8948 40.2864 44.794 40.3862C44.6933 40.4859 44.6359 40.6214 44.6343 40.7632C44.6327 40.905 44.687 41.0417 44.7855 41.1437L46.1758 42.5475Z" fill="white"/>
<circle cx="40" cy="40" r="37.5" stroke="#989898" stroke-width="5"/>
</svg>
