<svg width="80" height="80" viewBox="0 0 80 80" fill="none" xmlns="http://www.w3.org/2000/svg">
<g clip-path="url(#clip0_1:113)">
<path d="M59.0659 41.4993C59.4382 41.4993 59.7398 41.1977 59.7398 40.8255V36.6213C59.7398 36.2491 59.4382 35.9475 59.0659 35.9475H52.5464C52.1742 35.9475 51.8726 36.2491 51.8726 36.6213V38.0496H45.2077L41.6739 34.5158V30.7401H50.606C50.9782 30.7401 51.2798 30.4385 51.2798 30.0662V26.1882C51.2798 25.816 50.9782 25.5144 50.606 25.5144H37.1081C36.7359 25.5144 36.4343 25.816 36.4343 26.1882C36.4343 26.5605 36.7359 26.8621 37.1081 26.8621H49.9322V29.3923H32.0681V26.8621H34.4139C34.7861 26.8621 35.0877 26.5605 35.0877 26.1882C35.0877 25.816 34.7861 25.5144 34.4139 25.5144H31.3942C31.022 25.5144 30.7204 25.816 30.7204 26.1882V30.0662C30.7204 30.4384 31.022 30.74 31.3942 30.74H40.3262V34.5157L36.7924 38.0496H30.1276V36.6213C30.1276 36.2491 29.826 35.9475 29.4538 35.9475H22.9343C22.5621 35.9475 22.2605 36.2491 22.2605 36.6213V40.8255C22.2605 41.1977 22.5621 41.4993 22.9343 41.4993H25.5202V46.2361H22.9343C22.5621 46.2361 22.2605 46.5378 22.2605 46.91V51.1142C22.2605 51.4864 22.5621 51.788 22.9343 51.788H29.4538C29.826 51.788 30.1276 51.4864 30.1276 51.1142V46.91C30.1276 46.5378 29.826 46.2361 29.4538 46.2361H26.8678V41.4993H29.4538C29.826 41.4993 30.1276 41.1977 30.1276 40.8255V39.3973H36.7924L40.5235 43.1284C40.6552 43.26 40.8277 43.3257 41.0001 43.3257C41.1725 43.3257 41.345 43.26 41.4766 43.1284L45.2077 39.3973H51.8726V40.8255C51.8726 41.1977 52.1742 41.4993 52.5464 41.4993H55.1323V46.2361H52.5464C52.1742 46.2361 51.8726 46.5378 51.8726 46.91V51.1142C51.8726 51.4864 52.1742 51.788 52.5464 51.788H59.0659C59.4382 51.788 59.7398 51.4864 59.7398 51.1142V46.91C59.7398 46.5378 59.4382 46.2361 59.0659 46.2361H56.48V41.4993H59.0659ZM28.78 50.4404H23.6081V47.5838H28.78V50.4404ZM28.78 40.1517H23.6081V37.2952H28.78V40.1517ZM41.0001 41.699L38.0245 38.7235L41.0001 35.7479L43.9756 38.7235L41.0001 41.699ZM58.3921 50.4404H53.2203V47.5838H58.3921V50.4404ZM53.2203 37.2952H58.3921V40.1517H53.2203V37.2952Z" fill="white"/>
<path d="M63.3262 44.993C63.6984 44.993 64 44.6914 64 44.3192V23.1806C64 22.3473 63.322 21.6693 62.4887 21.6693H19.5113C18.678 21.6693 18 22.3472 18 23.1806V54.2662C18 55.0994 18.678 55.7774 19.5113 55.7774H32.5407C32.6611 55.9679 32.8247 56.1314 33.0226 56.2503L33.6966 56.6555C33.7136 56.6658 33.728 56.6803 33.738 56.6977L35.231 59.2837C35.2409 59.3009 35.2464 59.3205 35.2467 59.3405L35.2606 60.1269C35.2696 60.6379 35.5503 61.1143 35.9931 61.3701L37.3188 62.1355C37.5441 62.2656 37.7978 62.3308 38.0517 62.3308C38.2969 62.3308 38.5421 62.2701 38.762 62.1484L39.4496 61.7673C39.467 61.7576 39.4868 61.7525 39.5068 61.7525H42.4929C42.5129 61.7525 42.5326 61.7576 42.55 61.7673L43.238 62.1486C43.6854 62.3961 44.2382 62.3913 44.6809 62.1356L46.0068 61.3701C46.4496 61.1145 46.7303 60.6381 46.7393 60.1268L46.7531 59.3406C46.7534 59.3206 46.7588 59.3011 46.7689 59.2837L48.2619 56.6977C48.2719 56.6804 48.2863 56.6658 48.3032 56.6555L48.9773 56.2504C49.1751 56.1315 49.3387 55.9679 49.4591 55.7774H62.4887C63.322 55.7774 64 55.0994 64 54.2662V47.0133C64 46.6411 63.6984 46.3395 63.3262 46.3395C62.9539 46.3395 62.6523 46.6411 62.6523 47.0133V54.2662C62.6523 54.3564 62.5789 54.4297 62.4887 54.4297H49.6878V53.4634C49.6878 52.9522 49.4157 52.4709 48.9775 52.2075C48.9774 52.2075 48.9774 52.2075 48.9773 52.2075L48.3033 51.8023C48.2864 51.792 48.272 51.7775 48.262 51.7601L46.769 49.1742C46.759 49.1569 46.7535 49.1371 46.7532 49.1173L46.7393 48.3309C46.7303 47.8197 46.4495 47.3432 46.0068 47.0877L44.6809 46.3222C44.2381 46.0666 43.6853 46.0618 43.238 46.3095L42.5502 46.6906C42.5328 46.7002 42.513 46.7053 42.493 46.7053H39.5069C39.4869 46.7053 39.4672 46.7002 39.4498 46.6906L38.762 46.3095C38.3147 46.0618 37.7618 46.0666 37.319 46.3222L35.9931 47.0878C35.5502 47.3434 35.2696 47.8198 35.2606 48.3311L35.2467 49.1174C35.2464 49.1374 35.241 49.157 35.231 49.1742L33.738 51.7602C33.728 51.7775 33.7136 51.792 33.6966 51.8023L33.0225 52.2075C32.5843 52.4711 32.3122 52.9523 32.3122 53.4635V54.4298H19.5113C19.4211 54.4298 19.3477 54.3565 19.3477 54.2663V23.1806C19.3477 23.0904 19.4211 23.017 19.5113 23.017H62.4887C62.5789 23.017 62.6523 23.0904 62.6523 23.1806V44.3192C62.6523 44.6914 62.9539 44.993 63.3262 44.993ZM33.6598 53.4634C33.6598 53.4223 33.6817 53.3835 33.717 53.3624L34.3909 52.9572C34.6034 52.8295 34.7813 52.6485 34.9051 52.4339L36.3982 49.848C36.5221 49.6333 36.5899 49.389 36.5943 49.141L36.6081 48.3548C36.6089 48.3137 36.6314 48.2754 36.667 48.2549L37.9929 47.4893C38.0285 47.4687 38.0729 47.4684 38.1089 47.4883L38.7968 47.8694C39.0136 47.9896 39.2591 48.053 39.5069 48.053H42.493C42.7408 48.053 42.9863 47.9896 43.2032 47.8694L43.8912 47.4883C43.927 47.4683 43.9715 47.4687 44.0071 47.4893L45.333 48.2549C45.3686 48.2754 45.3911 48.3136 45.3918 48.3546L45.4056 49.141C45.41 49.3888 45.4778 49.6333 45.6018 49.8479L47.0949 52.4339C47.2188 52.6486 47.3965 52.8295 47.609 52.9571L48.283 53.3623H48.2831C48.3183 53.3835 48.3402 53.4222 48.3402 53.4633V54.9942C48.3402 55.0354 48.3183 55.074 48.283 55.0952L47.609 55.5004C47.3966 55.628 47.2188 55.809 47.0949 56.0236L45.6018 58.6097C45.4778 58.8244 45.41 59.0688 45.4056 59.3166L45.3918 60.1028C45.3911 60.144 45.3685 60.1823 45.3329 60.2028L44.007 60.9683C43.9714 60.9889 43.9269 60.9893 43.8911 60.9694L43.2031 60.5881C42.9863 60.468 42.7408 60.4046 42.493 60.4046H39.5069C39.2591 60.4046 39.0136 60.468 38.7966 60.5882L38.109 60.9693C38.0731 60.9893 38.0286 60.9889 37.9929 60.9683L36.6672 60.2029C36.6315 60.1823 36.6089 60.144 36.6081 60.1029L36.5943 59.3166C36.5899 59.0687 36.5221 58.8243 36.3982 58.6097L34.9051 56.0236C34.7813 55.809 34.6035 55.6281 34.391 55.5004L33.7169 55.0951C33.6817 55.074 33.6598 55.0354 33.6598 54.9942V53.4634Z" fill="white"/>
<path d="M37.9773 56.7697C38.2985 56.582 38.407 56.1694 38.2193 55.848C37.9331 55.3579 37.7819 54.798 37.7819 54.2289C37.7819 52.4544 39.2255 51.0107 41 51.0107C42.7745 51.0107 44.2182 52.4544 44.2182 54.2289C44.2182 56.0034 42.7745 57.447 41 57.447C40.6414 57.447 40.2875 57.3876 39.9483 57.2703C39.5964 57.1487 39.2129 57.3354 39.0913 57.687C38.9698 58.0387 39.1563 58.4224 39.508 58.5439C39.9891 58.7104 40.4911 58.7947 41 58.7947C43.5176 58.7947 45.5658 56.7464 45.5658 54.2289C45.5658 51.7113 43.5176 49.6631 41 49.6631C38.4825 49.6631 36.4342 51.7113 36.4342 54.2289C36.4342 55.0365 36.6491 55.8314 37.0556 56.5276C37.2433 56.849 37.6558 56.9573 37.9773 56.7697Z" fill="white"/>
</g>
<circle cx="40" cy="40" r="37.5" stroke="#989898" stroke-width="5"/>
<defs>
<clipPath id="clip0_1:113">
<rect width="46" height="46" fill="white" transform="translate(18 19)"/>
</clipPath>
</defs>
</svg>
