<svg width="80" height="80" viewBox="0 0 80 80" fill="none" xmlns="http://www.w3.org/2000/svg">
<circle cx="40" cy="40" r="37.5" stroke="#989898" stroke-width="5"/>
<path d="M59.51 43.2988C59.9857 41.7664 59.8725 40.1259 59.191 38.6794C59.0323 38.3427 58.6309 38.1984 58.2943 38.357C57.9575 38.5156 57.8132 38.917 57.9719 39.2537C58.5094 40.3947 58.5986 41.6893 58.223 42.8991C57.8453 44.1156 57.0293 45.1365 55.9254 45.7738C54.7573 46.4484 53.3962 46.6273 52.0934 46.2783C50.7905 45.9292 49.7014 45.0935 49.0271 43.9254C47.6347 41.5139 48.464 38.4193 50.8755 37.027C52.6387 36.0092 54.8268 36.1452 56.4504 37.3735C56.7472 37.5981 57.1698 37.5396 57.3943 37.2428C57.6188 36.9461 57.5603 36.5234 57.2635 36.2989C55.2069 34.7427 52.4348 34.5705 50.2016 35.8598C48.7217 36.7143 47.663 38.0939 47.2207 39.7445C46.7784 41.3951 47.0055 43.1192 47.8599 44.5991C48.7143 46.0791 50.0939 47.1377 51.7446 47.58C52.2957 47.7277 52.8551 47.8008 53.4108 47.8008C54.5193 47.8008 55.6135 47.5101 56.5992 46.9409C57.9978 46.1336 59.0315 44.8402 59.51 43.2988Z" fill="white"/>
<path d="M56.6262 51.868H51.9107H26.226H20.906C20.5981 51.868 20.3477 51.6175 20.3477 51.3096V23.5103C20.3477 23.2024 20.5981 22.9519 20.906 22.9519H24.0826C24.4547 22.9519 24.7564 22.6503 24.7564 22.2781C24.7564 21.9059 24.4547 21.6042 24.0826 21.6042H20.906C19.855 21.6042 19 22.4593 19 23.5103V51.3096C19 52.3606 19.855 53.2157 20.906 53.2157H25.5521V54.6986C25.5521 55.5434 26.2394 56.2307 27.0842 56.2307H33.8292L30.6541 62.4298C30.4845 62.761 30.6154 63.167 30.9466 63.3368C31.0449 63.3872 31.1498 63.411 31.2533 63.411C31.4981 63.411 31.7343 63.2771 31.8535 63.0441L35.3433 56.2307H42.7933L46.2831 63.0441C46.4024 63.2771 46.6385 63.411 46.8834 63.411C46.9868 63.411 47.0917 63.387 47.19 63.3368C47.5213 63.167 47.6523 62.761 47.4825 62.4298L44.3075 56.2307H51.0524C51.8972 56.2307 52.5845 55.5435 52.5845 54.6986V53.2157H56.6262C56.9983 53.2157 57.3 52.9141 57.3 52.5419C57.3 52.1696 56.9983 51.868 56.6262 51.868ZM51.2368 54.6986C51.2368 54.8003 51.1541 54.8831 51.0524 54.8831H27.0842C26.9825 54.8831 26.8998 54.8003 26.8998 54.6986V53.2157H51.2368V54.6986Z" fill="white"/>
<path d="M46.7993 29.4923C48.0378 29.4923 49.0454 28.4847 49.0454 27.2462C49.0454 26.0077 48.0378 25 46.7993 25C45.5608 25 44.5532 26.0077 44.5532 27.2462C44.5532 27.752 44.7214 28.2192 45.0047 28.5951L41.3142 33.7522C41.094 33.6799 40.8591 33.6402 40.6149 33.6402C40.0247 33.6402 39.4873 33.8694 39.086 34.2429L36.6262 32.8471C36.659 32.6948 36.6766 32.5368 36.6766 32.3748C36.6766 31.1363 35.669 30.1287 34.4305 30.1287C33.192 30.1287 32.1844 31.1363 32.1844 32.3748C32.1844 32.5368 32.202 32.6948 32.2348 32.8471L29.775 34.2429C29.3737 33.8694 28.8363 33.6403 28.2461 33.6403C27.0076 33.6403 26 34.648 26 35.8865C26 37.125 27.0076 38.1326 28.2461 38.1326C29.4846 38.1326 30.4922 37.125 30.4922 35.8865C30.4922 35.7245 30.4746 35.5665 30.4418 35.4141L32.9016 34.0183C33.3029 34.3919 33.8403 34.6211 34.4305 34.6211C35.0207 34.6211 35.558 34.3919 35.9594 34.0184L38.4192 35.4142C38.3864 35.5666 38.3688 35.7246 38.3688 35.8865C38.3688 37.125 39.3764 38.1327 40.6149 38.1327C41.8535 38.1327 42.8611 37.125 42.8611 35.8865C42.8611 35.3806 42.6928 34.9134 42.4095 34.5375L46.0999 29.3803C46.3201 29.4526 46.5551 29.4923 46.7993 29.4923ZM46.7993 26.3477C47.2947 26.3477 47.6977 26.7507 47.6977 27.2462C47.6977 27.7416 47.2947 28.1446 46.7993 28.1446C46.3039 28.1446 45.9008 27.7416 45.9008 27.2462C45.9008 26.7507 46.3038 26.3477 46.7993 26.3477ZM28.2458 36.7848C27.7504 36.7848 27.3474 36.3818 27.3474 35.8863C27.3474 35.3908 27.7504 34.9878 28.2458 34.9878C28.7412 34.9878 29.1443 35.3908 29.1443 35.8863C29.1443 36.3818 28.7412 36.7848 28.2458 36.7848ZM34.4303 33.2733C33.9349 33.2733 33.5319 32.8702 33.5319 32.3747C33.5319 31.8793 33.9349 31.4763 34.4303 31.4763C34.9257 31.4763 35.3287 31.8793 35.3287 32.3747C35.3288 32.8702 34.9257 33.2733 34.4303 33.2733ZM40.6148 36.7848C40.1194 36.7848 39.7164 36.3818 39.7164 35.8863C39.7164 35.3908 40.1194 34.9878 40.6148 34.9878C41.1103 34.9878 41.5133 35.3908 41.5133 35.8863C41.5133 36.3818 41.1102 36.7848 40.6148 36.7848Z" fill="white"/>
<path d="M32.6738 37C32.3017 37 32 37.3016 32 37.6738V47.0716C32 47.4438 32.3017 47.7454 32.6738 47.7454H35.4075C35.7796 47.7454 36.0813 47.4438 36.0813 47.0716V37.6738C36.0813 37.3016 35.7796 37 35.4075 37H32.6738ZM34.7338 46.3977H33.3477V38.3477H34.7338V46.3977Z" fill="white"/>
<path d="M26.6738 40C26.3017 40 26 40.3016 26 40.6738V46.628C26 47.0002 26.3017 47.3018 26.6738 47.3018H29.4075C29.7796 47.3018 30.0813 47.0002 30.0813 46.628V40.6738C30.0813 40.3016 29.7796 40 29.4075 40H26.6738ZM28.7337 45.9542H27.3477V41.3477H28.7337V45.9542V45.9542Z" fill="white"/>
<path d="M37.6738 40C37.3017 40 37 40.3016 37 40.6738V46.628C37 47.0002 37.3017 47.3018 37.6738 47.3018H40.4075C40.7796 47.3018 41.0813 47.0002 41.0813 46.628V40.6738C41.0813 40.3016 40.7796 40 40.4075 40H37.6738ZM39.7337 45.9542H38.3477V41.3477H39.7337V45.9542Z" fill="white"/>
<path d="M43.6738 44C43.3017 44 43 44.3016 43 44.6738V46.6519C43 47.0241 43.3017 47.3257 43.6738 47.3257H46.4075C46.7796 47.3257 47.0813 47.0241 47.0813 46.6519C47.0813 46.2797 46.7796 45.9781 46.4075 45.9781H44.3477V44.6738C44.3477 44.3016 44.046 44 43.6738 44Z" fill="white"/>
<path d="M64.1046 53.5216L60.2389 46.8259C61.2182 45.782 61.9314 44.5065 62.3124 43.0848C62.9212 40.8126 62.6087 38.4392 61.4325 36.4019C59.0044 32.196 53.6074 30.7502 49.4018 33.1782C45.1961 35.6062 43.7501 41.0032 46.1782 45.2089C47.3544 47.2462 49.2537 48.7035 51.5259 49.3124C52.2847 49.5157 53.0546 49.6163 53.8196 49.6163C54.4882 49.6163 55.153 49.5394 55.8031 49.3872L59.668 56.083C60.1417 56.9039 61.0044 57.3633 61.8904 57.3632C62.3247 57.3632 62.7645 57.2528 63.1669 57.0207C63.9572 56.5645 64.4482 55.714 64.4482 54.801C64.4482 54.3536 64.3294 53.9113 64.1046 53.5216ZM51.8747 48.0107C49.9501 47.495 48.3415 46.2606 47.3452 44.5351C45.2887 40.9729 46.5135 36.4019 50.0755 34.3453C51.2474 33.6687 52.5279 33.3475 53.7927 33.3475C56.3726 33.3475 58.8854 34.6855 60.2654 37.0757C61.2615 38.8012 61.5262 40.8114 61.0105 42.736C60.4948 44.6607 59.2605 46.2691 57.5349 47.2654C55.8095 48.2617 53.7993 48.5262 51.8747 48.0107ZM62.4934 55.8534C61.9136 56.1882 61.1697 55.9889 60.8352 55.4094L57.1168 48.9672C57.4895 48.8151 57.8544 48.6372 58.2089 48.4326C58.5637 48.2277 58.8997 47.9997 59.2179 47.7528L62.9374 54.1952C63.0441 54.3804 63.1006 54.5899 63.1006 54.8011C63.1006 55.2339 62.8679 55.6372 62.4934 55.8534Z" fill="white"/>
<path d="M27.6738 23.0896H36.8983H43.0302H58.1265C58.4343 23.0896 58.6848 23.3819 58.6848 23.7411V31.2156C58.6848 31.6498 58.9865 32.0017 59.3587 32.0017C59.7308 32.0017 60.0325 31.6498 60.0325 31.2156V23.7411C60.0325 22.5149 59.1774 21.5174 58.1265 21.5174H43.7041V19.9722C43.7041 18.8847 42.9457 18 42.0135 18H37.915C36.9829 18 36.2244 18.8847 36.2244 19.9722V21.5174H27.6738C27.3017 21.5174 27 21.8693 27 22.3035C27 22.7378 27.3017 23.0896 27.6738 23.0896ZM37.5721 19.9722C37.5721 19.7517 37.7259 19.5722 37.915 19.5722H42.0135C42.2025 19.5722 42.3565 19.7517 42.3565 19.9722V21.5174H37.5722V19.9722H37.5721Z" fill="white"/>
</svg>
