<svg width="80" height="80" viewBox="0 0 80 80" fill="none" xmlns="http://www.w3.org/2000/svg">
<path d="M53.5208 59.8777L54.9642 49.8148L56.3873 50.0189L54.9439 60.0818L53.5208 59.8777Z" fill="white"/>
<path d="M56.5856 53.2894L58.2337 54.9375L56.5856 56.5856L57.6019 57.6019L60.2663 54.9375L57.6019 52.2731L56.5856 53.2894Z" fill="white"/>
<path d="M52.2731 52.2731L49.6087 54.9375L52.2731 57.6019L53.2894 56.5856L51.6413 54.9375L53.2894 53.2894L52.2731 52.2731Z" fill="white"/>
<path d="M62.7604 52.4801C62.5433 52.4089 62.3737 52.253 62.2961 52.0532C62.2594 51.9583 62.2213 51.8641 62.1803 51.7707C62.0955 51.5745 62.1056 51.3459 62.2077 51.1432C62.6396 50.2893 62.475 49.2601 61.798 48.5837L61.4062 48.192V21.875C61.4062 20.6862 60.4388 19.7188 59.25 19.7188H21.875C20.6862 19.7188 19.7188 20.6862 19.7188 21.875V52.0625C19.7188 53.2513 20.6862 54.2188 21.875 54.2188H45.6239C45.6045 54.3366 45.5938 54.4574 45.5938 54.5796V55.2954C45.5938 56.2521 46.2047 57.0959 47.1146 57.3949C47.3317 57.4661 47.5013 57.622 47.5789 57.8218C47.6156 57.9167 47.6537 58.0109 47.6947 58.1043C47.7795 58.3005 47.7694 58.5291 47.6673 58.7318C47.2354 59.5857 47.4 60.6149 48.077 61.2912L48.583 61.798C49.2594 62.475 50.2879 62.6389 51.1425 62.2077C51.3452 62.1049 51.5738 62.0948 51.7707 62.1803C51.8634 62.2206 51.9576 62.2594 52.051 62.2961C52.2523 62.3737 52.4082 62.544 52.4794 62.7618C52.7791 63.6703 53.6229 64.2812 54.5796 64.2812H55.2954C56.2521 64.2812 57.0959 63.6703 57.3949 62.7604C57.4661 62.5433 57.622 62.3737 57.8218 62.2961C57.9167 62.2594 58.0109 62.2213 58.1043 62.1803C58.2998 62.0948 58.5291 62.1049 58.7318 62.2077C59.5857 62.6389 60.6149 62.475 61.2912 61.798L61.798 61.292C62.475 60.6156 62.6396 59.5864 62.2077 58.7325C62.1049 58.5298 62.0955 58.3013 62.1803 58.1043C62.2206 58.0116 62.2594 57.9174 62.2961 57.824C62.3737 57.6227 62.544 57.4668 62.7618 57.3956C63.6703 57.0959 64.2812 56.2521 64.2812 55.2954V54.5796C64.2812 53.6229 63.6703 52.7791 62.7604 52.4801ZM21.1562 21.875C21.1562 21.479 21.479 21.1562 21.875 21.1562H59.25C59.646 21.1562 59.9688 21.479 59.9688 21.875V28.3438H21.1562V21.875ZM21.875 52.7812C21.479 52.7812 21.1562 52.4585 21.1562 52.0625V29.7812H59.9688V47.4474C59.5533 47.4021 59.1249 47.469 58.7318 47.6673C58.5298 47.7701 58.3013 47.7795 58.1036 47.6947C58.0116 47.6544 57.9174 47.6163 57.8233 47.5789C57.6227 47.5013 57.4661 47.331 57.3949 47.1132C57.0959 46.2047 56.2521 45.5938 55.2954 45.5938H54.5796C53.6229 45.5938 52.7791 46.2047 52.4801 47.1146C52.4089 47.3317 52.253 47.5013 52.0517 47.5789C51.9576 47.6156 51.8641 47.6537 51.7707 47.6947C51.5745 47.7795 51.3459 47.7701 51.1432 47.6673C50.2886 47.2354 49.2601 47.4 48.5837 48.077L48.0778 48.583C47.4007 49.2594 47.2361 50.2886 47.6681 51.1425C47.7708 51.3452 47.7802 51.5738 47.6954 51.7707C47.6551 51.8634 47.6163 51.9576 47.5797 52.051C47.502 52.2523 47.3317 52.4082 47.1139 52.4794C46.8983 52.5505 46.7006 52.654 46.5231 52.7805H21.875V52.7812ZM62.8438 55.2954C62.8438 55.6297 62.6303 55.9243 62.3119 56.0293C61.6851 56.2348 61.1906 56.6992 60.9563 57.3029C60.9261 57.3798 60.8945 57.4567 60.8622 57.5315C60.6063 58.1208 60.6286 58.7943 60.9247 59.3801C61.0756 59.6784 61.0181 60.0378 60.7817 60.2742L60.2749 60.7809C60.0378 61.0181 59.6784 61.0749 59.3808 60.924C58.7957 60.6278 58.1208 60.6063 57.5329 60.8614C57.4574 60.8938 57.3805 60.9254 57.3022 60.9563C56.6992 61.1906 56.2356 61.6851 56.0293 62.3126C55.9251 62.6303 55.6297 62.8438 55.2954 62.8438H54.5796C54.2453 62.8438 53.9507 62.6303 53.8457 62.3119C53.6402 61.6851 53.1758 61.1906 52.5721 60.9563C52.4952 60.9261 52.4183 60.8945 52.3435 60.8622C52.0718 60.7436 51.7822 60.6846 51.4911 60.6846C51.1511 60.6846 50.8104 60.7651 50.4949 60.924C50.1959 61.0749 49.8372 61.0174 49.6008 60.7809L49.0941 60.2742C48.8576 60.0378 48.8001 59.6784 48.951 59.3801C49.2472 58.7943 49.2694 58.1208 49.0136 57.5322C48.9812 57.4567 48.9496 57.3798 48.9187 57.3015C48.6844 56.6984 48.1899 56.2348 47.5624 56.0286C47.2447 55.9251 47.0312 55.6297 47.0312 55.2954V54.5796C47.0312 54.2453 47.2447 53.9507 47.5624 53.8457C48.1899 53.6402 48.6844 53.1758 48.9187 52.5721C48.9489 52.4952 48.9805 52.4183 49.0128 52.3435C49.2687 51.7542 49.2464 51.0807 48.9503 50.4949C48.7994 50.1966 48.8569 49.8365 49.0933 49.6001L49.5993 49.0941C49.8358 48.8569 50.1952 48.7994 50.4942 48.951C51.08 49.2472 51.7542 49.2694 52.3421 49.0136C52.4183 48.9805 52.4952 48.9489 52.5721 48.9194C53.1751 48.6844 53.6394 48.1899 53.8457 47.5631C53.9499 47.2447 54.2453 47.0312 54.5796 47.0312H55.2954C55.6297 47.0312 55.9243 47.2447 56.0293 47.5631C56.2356 48.1899 56.6992 48.6844 57.3022 48.9187C57.3791 48.9489 57.456 48.9805 57.5315 49.0128C58.1194 49.2687 58.7943 49.2457 59.3801 48.9503C59.6777 48.7987 60.0378 48.8569 60.2749 49.0933L60.7809 49.5993C61.0174 49.8358 61.0749 50.1959 60.924 50.4942C60.6278 51.08 60.6056 51.7534 60.8614 52.3421C60.8938 52.4176 60.9254 52.4945 60.9563 52.5728C61.1906 53.1758 61.6851 53.6394 62.3126 53.8457C62.6303 53.9499 62.8438 54.2453 62.8438 54.5796V55.2954Z" fill="white"/>
<path d="M22.5938 26.9062H26.9062V22.5938H22.5938V26.9062ZM24.0312 24.0312H25.4688V25.4688H24.0312V24.0312Z" fill="white"/>
<path d="M28.3438 26.9062H32.6562V22.5938H28.3438V26.9062ZM29.7812 24.0312H31.2188V25.4688H29.7812V24.0312Z" fill="white"/>
<path d="M34.0938 26.9062H38.4062V22.5938H34.0938V26.9062ZM35.5312 24.0312H36.9688V25.4688H35.5312V24.0312Z" fill="white"/>
<path d="M44.875 31.2188H24.75C23.5612 31.2188 22.5938 32.1862 22.5938 33.375V44.875C22.5938 46.0638 23.5612 47.0312 24.75 47.0312H35.3135L39.1667 49.6001C39.4678 49.8006 39.8172 49.9062 40.178 49.9062C41.1828 49.9062 42 49.089 42 48.0842V47.0312H44.875C46.0638 47.0312 47.0312 46.0638 47.0312 44.875V33.375C47.0312 32.1862 46.0638 31.2188 44.875 31.2188ZM45.5938 44.875C45.5938 45.271 45.271 45.5938 44.875 45.5938H40.5625V48.0842C40.5625 48.3717 40.2038 48.5629 39.9645 48.4041L35.749 45.5938H24.75C24.354 45.5938 24.0312 45.271 24.0312 44.875V33.375C24.0312 32.979 24.354 32.6562 24.75 32.6562H44.875C45.271 32.6562 45.5938 32.979 45.5938 33.375V44.875Z" fill="white"/>
<path d="M26.9062 36.9688C26.9062 37.7615 26.2615 38.4062 25.4688 38.4062V39.8438C26.2615 39.8438 26.9062 40.4885 26.9062 41.2812C26.9062 42.8668 28.1957 44.1562 29.7812 44.1562V42.7188C28.9885 42.7188 28.3438 42.074 28.3438 41.2812C28.3438 40.4187 27.9542 39.6526 27.3504 39.125C27.9542 38.5974 28.3438 37.8312 28.3438 36.9688C28.3438 36.176 28.9885 35.5312 29.7812 35.5312V34.0938C28.1957 34.0938 26.9062 35.3832 26.9062 36.9688Z" fill="white"/>
<path d="M42.7188 36.9688C42.7188 35.3832 41.4293 34.0938 39.8438 34.0938V35.5312C40.6365 35.5312 41.2812 36.176 41.2812 36.9688C41.2812 37.8312 41.6708 38.5974 42.2746 39.125C41.6708 39.6526 41.2812 40.4187 41.2812 41.2812C41.2812 42.074 40.6365 42.7188 39.8438 42.7188V44.1562C41.4293 44.1562 42.7188 42.8668 42.7188 41.2812C42.7188 40.4885 43.3635 39.8438 44.1562 39.8438V38.4062C43.3635 38.4062 42.7188 37.7615 42.7188 36.9688Z" fill="white"/>
<path d="M31.2188 34.0938H38.4062V35.5312H31.2188V34.0938Z" fill="white"/>
<path d="M31.2188 36.9688H38.4062V38.4062H31.2188V36.9688Z" fill="white"/>
<path d="M31.2188 39.8438H32.6562V41.2812H31.2188V39.8438Z" fill="white"/>
<path d="M34.0938 39.8438H38.4062V41.2812H34.0938V39.8438Z" fill="white"/>
<path d="M31.2188 42.7188H38.4062V44.1562H31.2188V42.7188Z" fill="white"/>
<path d="M49 36.9688H59.0625V38.4062H49V36.9688Z" fill="white"/>
<path d="M49 41H59.0625V42.4375H49V41Z" fill="white"/>
<path d="M49 33H59.0625V34.4375H49V33Z" fill="white"/>
<circle cx="40" cy="40" r="37.5" stroke="#A2A2A2" stroke-width="5"/>
</svg>
