<svg width="80" height="80" viewBox="0 0 80 80" fill="none" xmlns="http://www.w3.org/2000/svg">
<g clip-path="url(#clip0_1:110)">
<path d="M46.3451 32.9548C47.5836 32.9548 48.5912 31.9472 48.5912 30.7087C48.5912 29.4702 47.5836 28.4625 46.3451 28.4625C45.1066 28.4625 44.099 29.4702 44.099 30.7087C44.099 31.2145 44.2672 31.6817 44.5505 32.0576L40.8601 37.2148C40.6399 37.1424 40.4049 37.1027 40.1607 37.1027C39.5705 37.1027 39.0331 37.3319 38.6319 37.7055L36.172 36.3097C36.2048 36.1573 36.2224 35.9993 36.2224 35.8374C36.2224 34.5989 35.2148 33.5913 33.9763 33.5913C32.7378 33.5913 31.7302 34.5989 31.7302 35.8374C31.7302 35.9993 31.7478 36.1573 31.7806 36.3097L29.3208 37.7055C28.9196 37.3319 28.3821 37.1028 27.7919 37.1028C26.5534 37.1028 25.5458 38.1105 25.5458 39.349C25.5458 40.5875 26.5534 41.5952 27.7919 41.5952C29.0304 41.5952 30.038 40.5875 30.038 39.349C30.038 39.187 30.0204 39.0291 29.9876 38.8767L32.4475 37.4809C32.8487 37.8544 33.3861 38.0836 33.9763 38.0836C34.5665 38.0836 35.1039 37.8544 35.5052 37.481L37.965 38.8768C37.9322 39.0291 37.9146 39.1871 37.9146 39.3491C37.9146 40.5876 38.9222 41.5953 40.1607 41.5953C41.3993 41.5953 42.4069 40.5876 42.4069 39.3491C42.4069 38.8432 42.2386 38.3759 41.9554 38L45.6458 32.8429C45.8659 32.9151 46.1009 32.9548 46.3451 32.9548ZM46.3451 29.8102C46.8405 29.8102 47.2436 30.2132 47.2436 30.7087C47.2436 31.2041 46.8405 31.6072 46.3451 31.6072C45.8497 31.6072 45.4467 31.2041 45.4467 30.7087C45.4466 30.2132 45.8496 29.8102 46.3451 29.8102ZM27.7917 40.2473C27.2963 40.2473 26.8932 39.8443 26.8932 39.3488C26.8932 38.8533 27.2963 38.4503 27.7917 38.4503C28.2871 38.4503 28.6901 38.8533 28.6901 39.3488C28.6901 39.8443 28.2871 40.2473 27.7917 40.2473ZM33.9761 36.7358C33.4807 36.7358 33.0777 36.3328 33.0777 35.8373C33.0777 35.3419 33.4807 34.9388 33.9761 34.9388C34.4715 34.9388 34.8746 35.3419 34.8746 35.8373C34.8747 36.3328 34.4715 36.7358 33.9761 36.7358ZM40.1606 40.2473C39.6652 40.2473 39.2622 39.8443 39.2622 39.3488C39.2622 38.8533 39.6652 38.4503 40.1606 38.4503C40.6561 38.4503 41.0592 38.8533 41.0592 39.3488C41.0592 39.8443 40.656 40.2473 40.1606 40.2473Z" fill="white"/>
<path d="M54.6262 54.868H49.9107H24.226H18.906C18.5981 54.868 18.3477 54.6175 18.3477 54.3096V26.5102C18.3477 26.2023 18.5981 25.9519 18.906 25.9519H22.0826C22.4547 25.9519 22.7564 25.6502 22.7564 25.278C22.7564 24.9058 22.4547 24.6042 22.0826 24.6042H18.906C17.855 24.6042 17 25.4592 17 26.5102V54.3096C17 55.3606 17.855 56.2156 18.906 56.2156H23.5521V57.6986C23.5521 58.5434 24.2394 59.2307 25.0842 59.2307H31.8292L28.6541 65.4297C28.4845 65.761 28.6154 66.167 28.9466 66.3367C29.0449 66.3871 29.1498 66.4109 29.2533 66.4109C29.4981 66.4109 29.7343 66.2771 29.8535 66.0441L33.3433 59.2307H40.7933L44.2831 66.0441C44.4024 66.2771 44.6385 66.4109 44.8834 66.4109C44.9868 66.4109 45.0917 66.3869 45.19 66.3367C45.5213 66.167 45.6523 65.761 45.4825 65.4297L42.3075 59.2307H49.0524C49.8972 59.2307 50.5845 58.5435 50.5845 57.6986V56.2156H54.6262C54.9983 56.2156 55.3 55.914 55.3 55.5418C55.3 55.1696 54.9983 54.868 54.6262 54.868ZM49.2368 57.6986C49.2368 57.8003 49.1541 57.883 49.0524 57.883H25.0842C24.9825 57.883 24.8998 57.8003 24.8998 57.6986V56.2156H49.2368V57.6986Z" fill="white"/>
<path d="M24.7778 25.9518H34.0023H40.1342H55.2305C55.5384 25.9518 55.7888 26.2023 55.7888 26.5102V32.9171C55.7888 33.2893 56.0905 33.5909 56.4627 33.5909C56.8348 33.5909 57.1365 33.2893 57.1365 32.9171V26.5102C57.1365 25.4592 56.2814 24.6042 55.2305 24.6042H40.8081V23.2797C40.8081 22.3476 40.0497 21.5892 39.1175 21.5892H35.019C34.0869 21.5892 33.3284 22.3476 33.3284 23.2797V24.6042H24.7778C24.4057 24.6042 24.104 24.9058 24.104 25.278C24.104 25.6502 24.4057 25.9518 24.7778 25.9518ZM34.6761 23.2797C34.6761 23.0907 34.8299 22.9369 35.019 22.9369H39.1175C39.3066 22.9369 39.4605 23.0907 39.4605 23.2797V24.6042H34.6762V23.2797H34.6761Z" fill="white"/>
<path d="M26.4247 45.0401C26.0526 45.0401 25.7509 45.3417 25.7509 45.7139V51.668C25.7509 52.0402 26.0526 52.3418 26.4247 52.3418H29.1584C29.5306 52.3418 29.8323 52.0402 29.8323 51.668V45.7139C29.8323 45.3417 29.5306 45.0401 29.1584 45.0401H26.4247ZM28.4846 50.9943H27.0986V46.3878H28.4846V50.9943Z" fill="white"/>
<path d="M32.6093 41.5965C32.2371 41.5965 31.9354 41.8981 31.9354 42.2703V51.6681C31.9354 52.0403 32.2371 52.3419 32.6093 52.3419H35.3429C35.7151 52.3419 36.0168 52.0403 36.0168 51.6681V42.2703C36.0168 41.8981 35.7151 41.5965 35.3429 41.5965H32.6093ZM34.6692 50.9942H33.2832V42.9442H34.6692V50.9942Z" fill="white"/>
<path d="M38.7937 45.0401C38.4216 45.0401 38.1199 45.3417 38.1199 45.7139V51.668C38.1199 52.0402 38.4216 52.3418 38.7937 52.3418H41.5274C41.8995 52.3418 42.2012 52.0402 42.2012 51.668V45.7139C42.2012 45.3417 41.8995 45.0401 41.5274 45.0401H38.7937ZM40.8535 50.9943H39.4675V46.3878H40.8535V50.9943Z" fill="white"/>
<path d="M44.9782 49.0162C44.6061 49.0162 44.3044 49.3178 44.3044 49.69V51.6681C44.3044 52.0403 44.6061 52.3419 44.9782 52.3419H47.7119C48.084 52.3419 48.3857 52.0403 48.3857 51.6681C48.3857 51.2959 48.084 50.9943 47.7119 50.9943H45.652V49.69C45.652 49.3178 45.3503 49.0162 44.9782 49.0162Z" fill="white"/>
<path d="M62.6564 55.5017L58.7907 48.806C59.7701 47.7621 60.4832 46.4866 60.8642 45.0649C61.473 42.7927 61.1606 40.4193 59.9843 38.382C57.5562 34.1761 52.1592 32.7303 47.9536 35.1583C43.748 37.5863 42.3019 42.9833 44.73 47.189C45.9063 49.2263 47.8055 50.6836 50.0777 51.2925C50.8365 51.4959 51.6064 51.5964 52.3714 51.5964C53.04 51.5964 53.7048 51.5195 54.3549 51.3673L58.2198 58.0632C58.6935 58.8841 59.5562 59.3434 60.4423 59.3433C60.8765 59.3433 61.3164 59.2329 61.7188 59.0008C62.509 58.5446 63 57.6941 63 56.7811C63 56.3338 62.8813 55.8915 62.6564 55.5017ZM50.4265 49.9908C48.5019 49.4751 46.8933 48.2407 45.897 46.5152C43.8405 42.9531 45.0653 38.382 48.6274 36.3254C49.7992 35.6489 51.0797 35.3276 52.3446 35.3276C54.9244 35.3276 57.4372 36.6656 58.8172 39.0558C59.8134 40.7814 60.078 42.7915 59.5623 44.7162C59.0466 46.6408 57.8123 48.2493 56.0867 49.2455C54.3613 50.2418 52.3511 50.5063 50.4265 49.9908ZM61.0452 57.8335C60.4654 58.1683 59.7215 57.969 59.3871 57.3895L55.6686 50.9474C56.0413 50.7953 56.4062 50.6174 56.7607 50.4127C57.1155 50.2079 57.4515 49.9798 57.7697 49.7329L61.4892 56.1754C61.5959 56.3605 61.6524 56.57 61.6524 56.7812C61.6524 57.214 61.4197 57.6174 61.0452 57.8335Z" fill="white"/>
<path d="M58.4666 44.6838C58.9424 43.1515 58.8291 41.5109 58.1476 40.0644C57.9889 39.7277 57.5875 39.5834 57.2509 39.742C56.9141 39.9006 56.7698 40.3021 56.9285 40.6387C57.466 41.7797 57.5553 43.0743 57.1796 44.2841C56.8019 45.5006 55.986 46.5215 54.882 47.1588C53.7139 47.8334 52.3528 48.0124 51.05 47.6633C49.7471 47.3142 48.658 46.4785 47.9837 45.3104C46.5913 42.8989 47.4206 39.8043 49.8321 38.412C51.5953 37.3942 53.7834 37.5302 55.407 38.7585C55.7038 38.9832 56.1264 38.9247 56.3509 38.6278C56.5754 38.3311 56.5169 37.9084 56.2201 37.6839C54.1635 36.1277 51.3914 35.9555 49.1582 37.2449C47.6783 38.0993 46.6196 39.4789 46.1773 41.1295C45.735 42.7801 45.9621 44.5042 46.8165 45.9841C47.6709 47.4641 49.0506 48.5227 50.7012 48.9651C51.2524 49.1128 51.8117 49.1858 52.3674 49.1858C53.4759 49.1858 54.5701 48.8951 55.5558 48.3259C56.9544 47.5186 57.9881 46.2252 58.4666 44.6838Z" fill="white"/>
</g>
<circle cx="40" cy="40" r="37.5" stroke="#989898" stroke-width="5"/>
<defs>
<clipPath id="clip0_1:110">
<rect width="46" height="46" fill="white" transform="translate(17 21)"/>
</clipPath>
</defs>
</svg>
