<svg width="60" height="60" viewBox="0 0 60 60" fill="none" xmlns="http://www.w3.org/2000/svg">
<g opacity="0.8">
<path d="M30 42.5806C25.1971 42.5806 21.2903 46.4884 21.2903 51.2903C21.2903 56.0923 25.1971 60 30 60C34.8029 60 38.7096 56.0923 38.7096 51.2903C38.7096 46.4884 34.8029 42.5806 30 42.5806ZM26.3003 56.9584C26.7832 55.351 28.2793 54.1936 30 54.1936C31.7206 54.1936 33.2167 55.351 33.6996 56.9584C32.6342 57.6552 31.3645 58.0645 30 58.0645C28.6354 58.0645 27.3658 57.6552 26.3003 56.9584ZM28.0645 50.3226C28.0645 49.2552 28.9325 48.3871 30 48.3871C31.0674 48.3871 31.9354 49.2552 31.9354 50.3226C31.9354 51.39 31.0674 52.2581 30 52.2581C28.9325 52.2581 28.0645 51.39 28.0645 50.3226ZM35.2287 55.5919C34.7022 54.4877 33.8477 53.581 32.788 52.9945C33.4558 52.2997 33.8709 51.36 33.8709 50.3226C33.8709 48.1877 32.1348 46.4516 30 46.4516C27.8651 46.4516 26.129 48.1877 26.129 50.3226C26.129 51.36 26.5442 52.2997 27.2119 52.9955C26.1522 53.5819 25.2987 54.4877 24.7713 55.5929C23.8064 54.421 23.2258 52.9219 23.2258 51.2903C23.2258 47.5548 26.2654 44.5161 30 44.5161C33.7345 44.5161 36.7742 47.5548 36.7742 51.2903C36.7742 52.9219 36.1935 54.421 35.2287 55.5919Z" fill="#428DFF"/>
<path d="M30 0C25.1971 0 21.2903 3.90774 21.2903 8.70968C21.2903 9.8371 21.5129 10.9113 21.9039 11.9013C21.4055 11.7271 20.879 11.6129 20.3226 11.6129C18.7219 11.6129 17.4194 12.9165 17.4194 14.5161V16.9084C17.4194 18.6755 16.4777 20.3381 14.9623 21.2477C13.531 22.1071 12.4519 23.4523 11.9255 25.0345L11.9032 25.1023L0 24.1103V40.6452H30C31.6006 40.6452 32.9032 39.3426 32.9032 37.7419C32.9032 37.3597 32.8248 36.9968 32.6903 36.6629C33.9242 36.3271 34.8387 35.2094 34.8387 33.871C34.8387 33.1248 34.5474 32.4503 34.0839 31.9355C34.5484 31.4206 34.8387 30.7461 34.8387 30C34.8387 29.2539 34.5474 28.5794 34.0839 28.0645C34.5484 27.5497 34.8387 26.8752 34.8387 26.129C34.8387 24.5294 33.5371 23.2258 31.9365 23.2258H27.0968C26.0294 23.2258 25.1613 22.3577 25.1613 21.2903V16.4516C25.1613 16.2658 25.1265 16.0897 25.1061 15.9097C26.5026 16.861 28.1865 17.4194 30 17.4194C34.8029 17.4194 38.7097 13.5116 38.7097 8.70968C38.7097 3.90774 34.8029 0 30 0ZM11.6129 38.7097H1.93548V26.2132L11.6129 27.0194V38.7097ZM27.0968 25.1613H31.9365C32.4697 25.1613 32.9032 25.5958 32.9032 26.129C32.9032 26.6623 32.4697 27.0968 31.9355 27.0968H25.1613V29.0323H31.9355C32.4697 29.0323 32.9032 29.4668 32.9032 30C32.9032 30.5332 32.4697 30.9677 31.9355 30.9677H25.1613V32.9032H31.9355C32.4697 32.9032 32.9032 33.3377 32.9032 33.871C32.9032 34.4042 32.4697 34.8387 31.9355 34.8387H25.1613V36.7742H30C30.5342 36.7742 30.9677 37.2077 30.9677 37.7419C30.9677 38.2761 30.5342 38.7097 30 38.7097H13.5484V26.2858L13.7623 25.6471C14.1435 24.5023 14.9226 23.5297 15.959 22.9084C18.0542 21.6513 19.3558 19.3519 19.3558 16.9094V14.5171C19.3558 13.9839 19.7903 13.5494 20.3235 13.5494C21.9242 13.5494 23.2268 14.8519 23.2268 16.4526V21.2913C23.2258 23.4252 24.9619 25.1613 27.0968 25.1613V25.1613ZM30 15.4839C26.2655 15.4839 23.2258 12.4452 23.2258 8.70968C23.2258 4.97419 26.2655 1.93548 30 1.93548C33.7345 1.93548 36.7742 4.97419 36.7742 8.70968C36.7742 12.4452 33.7345 15.4839 30 15.4839Z" fill="#428DFF"/>
<path d="M51.2904 21.2903C46.4875 21.2903 42.5807 25.1981 42.5807 30C42.5807 34.8019 46.4875 38.7097 51.2904 38.7097C56.0933 38.7097 60 34.8019 60 30C60 25.1981 56.0933 21.2903 51.2904 21.2903ZM51.2904 36.7742C47.5558 36.7742 44.5162 33.7355 44.5162 30C44.5162 26.2645 47.5558 23.2258 51.2904 23.2258C55.0249 23.2258 58.0646 26.2645 58.0646 30C58.0646 33.7355 55.0249 36.7742 51.2904 36.7742Z" fill="#428DFF"/>
<path d="M54.1936 27.0968V30.9677H52.2581V25.1613H50.3226V30.9677H48.3871V29.0323H46.4517V32.9032H56.1291V27.0968H54.1936Z" fill="#428DFF"/>
<path d="M29.0322 7.74194H30.9677V9.67742H29.0322V7.74194Z" fill="#428DFF"/>
<path d="M32.9032 7.74194H34.8387V9.67742H32.9032V7.74194Z" fill="#428DFF"/>
<path d="M25.1613 7.74194H27.0967V9.67742H25.1613V7.74194Z" fill="#428DFF"/>
<path d="M50.4696 16.9655L51.7625 19.0258L53.2064 11.8026L51.3086 11.4223L50.7899 14.0187C48.2893 10.709 45.148 8.23258 41.0544 6.31741L40.2347 8.07096C44.7309 10.1739 47.9835 13.0006 50.4696 16.9655V16.9655Z" fill="#428DFF"/>
<path d="M6.3175 18.9455L8.07202 19.7651C10.173 15.271 12.9998 12.0184 16.9656 9.53031L19.0249 8.23837L11.8027 6.79354L11.4233 8.69031L14.0198 9.20999C10.7082 11.7116 8.2317 14.8529 6.3175 18.9455V18.9455Z" fill="#428DFF"/>
<path d="M9.53023 43.0345L8.23733 40.9742L6.79346 48.1974L8.6912 48.5777L9.20991 45.9813C11.7106 49.291 14.8518 51.7674 18.9454 53.6826L19.766 51.929C15.2689 49.8261 12.0164 46.9994 9.53023 43.0345V43.0345Z" fill="#428DFF"/>
<path d="M53.6825 41.0545L51.928 40.2348C49.827 44.729 47.0003 47.9816 43.0345 50.4697L40.9751 51.7616L48.1974 53.2065L48.5777 51.3087L45.9812 50.789C49.2919 48.2884 51.7683 45.1471 53.6825 41.0545V41.0545Z" fill="#428DFF"/>
</g>
</svg>
