<svg width="60" height="60" viewBox="0 0 60 60" fill="none" xmlns="http://www.w3.org/2000/svg">
<path d="M60 32.1803C60 28.1821 58.5958 24.3465 56.0564 21.2683C56.7116 20.233 57.0968 19.0121 57.0968 17.7018C57.0968 14.1334 54.2826 11.2119 50.7445 10.9937L50.7232 10.9725L55.5619 6.16592L49.3548 0L44.5161 4.80661L43.5484 3.84529L38.5335 8.82687C34.6132 3.52902 28.4323 0.397988 21.7684 0.397988H20.8123C9.33581 0.397988 0 9.67187 0 21.0722C0 26.595 2.16484 31.7871 6.09581 35.691L10.1274 39.6959C11.5248 41.0841 12.3648 42.8769 12.5429 44.8082C11.4377 45.2158 10.6452 46.2646 10.6452 47.5028C10.6452 48.8323 11.5597 49.9436 12.7935 50.2753C12.659 50.6079 12.5806 50.9684 12.5806 51.3481C12.5806 52.5997 13.3926 53.6572 14.5161 54.0552V55.1934C14.5161 57.8438 16.6868 60 19.3548 60H23.2258C25.8939 60 28.0645 57.8438 28.0645 55.1934V54.0552C29.1881 53.6572 30 52.5997 30 51.3481C30 50.9684 29.9216 50.6079 29.7871 50.2753C31.021 49.9426 31.9355 48.8323 31.9355 47.5028C31.9355 46.2646 31.1429 45.2158 30.0377 44.8073C30.211 42.9279 31.0161 41.1831 32.3468 39.8122H39.2768L42.4132 42.9279L38.2481 53.2707H60V41.7349H57.0881C58.9732 38.9172 60 35.5776 60 32.1803ZM54.6958 41.7349H47.7019C50.6458 38.2578 52.2581 33.9107 52.2581 29.3136C52.2581 27.6169 52.0239 25.9403 51.5835 24.3099C52.7952 24.0821 53.8906 23.5313 54.7829 22.7535C56.9003 25.4404 58.0645 28.7436 58.0645 32.1812C58.0645 35.6401 56.8684 39.0326 54.6958 41.7349V41.7349ZM43.5697 17.2827L40.6452 20.1878L35.2394 14.8178L43.5484 6.56391L48.2961 11.2802C45.6774 12.0982 43.7468 14.4583 43.5697 17.2827V17.2827ZM33.871 16.1771L39.2768 21.5471L37.7419 23.0717L32.3361 17.7018L33.871 16.1771ZM43.859 19.7148C44.6526 22.2229 46.8861 24.1013 49.5929 24.3907C50.0681 25.9884 50.3226 27.64 50.3226 29.3136C50.3226 30.9373 50.0874 32.5225 49.6568 34.0443H37.9684C40.9529 30.3807 42.5806 25.8519 42.5806 21.0722C42.5806 21.0434 42.5797 21.0145 42.5797 20.9847L43.859 19.7148ZM55.1613 17.7018C55.1613 20.3522 52.9906 22.5084 50.3226 22.5084C47.6545 22.5084 45.4839 20.3522 45.4839 17.7018C45.4839 15.0514 47.6545 12.8952 50.3226 12.8952C52.9906 12.8952 55.1613 15.0514 55.1613 17.7018ZM49.3548 2.71862L52.8252 6.16592L49.3548 9.61323L45.8845 6.16592L49.3548 2.71862ZM37.1448 10.2064L29.5994 17.7018L37.7419 25.7904L40.5426 23.0083C40.1168 27.1574 38.3168 31.0046 35.3787 34.0443H27.0968V35.0056C27.0968 37.0186 28.3519 38.7403 30.1239 39.4556C28.9858 40.962 28.2881 42.7337 28.1119 44.6188H27.9716C27.5845 41.8281 25.9432 39.3537 23.5597 37.8905C26.3177 36.2092 28.0645 33.207 28.0645 29.8875V26.6652C28.0645 23.3467 26.3187 20.3445 23.5606 18.6631C26.3187 16.9818 28.0645 13.9796 28.0645 10.6611V3.39731C31.6819 4.6653 34.8581 7.01573 37.1448 10.2064ZM26.129 8.08857H16.4516V6.16592H26.129V8.08857ZM26.129 10.0112V10.6611C26.129 11.0937 26.0855 11.5186 26.0139 11.9339H16.5677C16.4952 11.5176 16.4516 11.0937 16.4516 10.6611V10.0112H26.129ZM25.3935 13.8565C24.5806 15.56 23.1329 16.9212 21.2903 17.623C19.4468 16.9212 17.999 15.5609 17.1871 13.8565H25.3935ZM21.2903 19.7033C23.1339 20.405 24.5816 21.7653 25.3935 23.4697H17.1871C17.999 21.7663 19.4468 20.406 21.2903 19.7033ZM16.4516 26.6652C16.4516 26.2326 16.4952 25.8077 16.5668 25.3924H26.0129C26.0855 25.8086 26.129 26.2326 26.129 26.6652V27.315H16.4516V26.6652ZM26.129 29.2377V29.8875C26.129 30.3201 26.0855 30.745 26.0139 31.1603H16.5677C16.4952 30.7441 16.4516 30.3201 16.4516 29.8875V29.2377H26.129ZM25.3935 33.083C24.5806 34.7864 23.1329 36.1477 21.2903 36.8494C19.4468 36.1477 17.999 34.7874 17.1871 33.083H25.3935ZM21.2903 38.9297C22.3587 39.3373 23.2974 39.9708 24.0581 40.7735H18.5226C19.2832 39.9708 20.2219 39.3373 21.2903 38.9297ZM17.2006 42.6962H25.381C25.6723 43.3028 25.891 43.9449 26.009 44.6188H16.5726C16.6906 43.9449 16.9084 43.3028 17.2006 42.6962ZM21.7684 2.32063C23.2568 2.32063 24.7171 2.49944 26.129 2.8311V4.24328H16.4516V2.84552C17.8539 2.51482 19.3094 2.32063 20.8123 2.32063H21.7684ZM7.46419 34.3317C3.89903 30.7892 1.93548 26.0807 1.93548 21.0722C1.93548 12.9279 7.19806 5.99962 14.5161 3.41558V10.6601C14.5161 13.9786 16.2619 16.9808 19.02 18.6622C16.2619 20.3445 14.5161 23.3467 14.5161 26.6652V29.8875C14.5161 33.207 16.2629 36.2092 19.0219 37.8905C16.6384 39.3537 14.9971 41.8281 14.61 44.6188H14.4697C14.249 42.2453 13.2145 40.0429 11.4968 38.3366L7.46419 34.3317ZM23.2258 58.0774H19.3548C17.7542 58.0774 16.4516 56.7834 16.4516 55.1934V54.2321H26.129V55.1934C26.129 56.7834 24.8265 58.0774 23.2258 58.0774ZM27.0968 52.3094H15.4839C14.9497 52.3094 14.5161 51.8787 14.5161 51.3481C14.5161 50.8174 14.9497 50.3868 15.4839 50.3868H27.0968C27.631 50.3868 28.0645 50.8174 28.0645 51.3481C28.0645 51.8787 27.631 52.3094 27.0968 52.3094ZM29.0323 48.4641H27.0968H15.4839H13.5484C13.0142 48.4641 12.5806 48.0335 12.5806 47.5028C12.5806 46.9722 13.0142 46.5415 13.5484 46.5415H29.0323C29.5665 46.5415 30 46.9722 30 47.5028C30 48.0335 29.5665 48.4641 29.0323 48.4641ZM31.9355 37.8896C30.6735 37.8896 29.5974 37.0859 29.1977 35.9669H49.0026C48.1326 38.0607 46.8465 39.9833 45.1858 41.6339L45.0832 41.7349H43.949L40.0781 37.8896H31.9355ZM58.0645 51.3481H41.1068L44.2035 43.6575H58.0645V51.3481Z" fill="#428DFF"/>
</svg>
