<svg width="60" height="60" viewBox="0 0 60 60" fill="none" xmlns="http://www.w3.org/2000/svg">
<path d="M58.9026 41.1097L54.7761 36.9832C56.25 34.3394 57.0968 31.3006 57.0968 28.0645C57.0968 17.9255 48.8487 9.67742 38.7097 9.67742C34.4729 9.67742 30.5777 11.1319 27.4655 13.5484H16.7168C18.33 12.1287 19.3548 10.0548 19.3548 7.74194C19.3548 3.47323 15.8816 0 11.6129 0C7.34419 0 3.87097 3.47323 3.87097 7.74194C3.87097 10.1787 5.00516 12.3532 6.77129 13.7739C2.90032 14.6584 0 18.1229 0 22.2581V28.0645C0 31.1265 2.04387 33.7181 4.83871 34.5532V56.129C4.83871 58.2639 6.57484 60 8.70968 60C9.87097 60 10.9026 59.4755 11.6129 58.6626C12.3232 59.4755 13.3548 60 14.5161 60C16.651 60 18.3871 58.2639 18.3871 56.129V54.5942L26.5297 46.4516L25.5619 45.4839L28.0374 43.0084C30.0445 44.4465 32.3448 45.4965 34.8387 46.0335V51.0784L37.1768 51.6619L35.9371 53.729L41.1116 58.9035L43.1768 57.6629L43.7603 60H51.0784L51.6619 57.6619L53.7271 58.9026L58.9016 53.7281L57.6619 51.661L60 51.0784V43.7603L57.6619 43.1768L58.9026 41.1097ZM55.1613 28.0645C55.1613 37.1361 47.7813 44.5161 38.7097 44.5161C29.6381 44.5161 22.2581 37.1361 22.2581 28.0645C22.2581 18.9929 29.6381 11.6129 38.7097 11.6129C47.7813 11.6129 55.1613 18.9929 55.1613 28.0645V28.0645ZM52.2581 47.4194C52.2581 50.0874 50.0874 52.2581 47.4194 52.2581C44.7513 52.2581 42.5806 50.0874 42.5806 47.4194C42.5806 46.92 42.6794 46.439 42.8265 45.9697C45.2226 45.419 47.4368 44.4 49.3761 43.0123C51.1132 43.7826 52.2581 45.4916 52.2581 47.4194V47.4194ZM20.3226 40.2445L18.3871 42.18V34.8387H18.871C19.8058 34.8387 20.6535 34.4574 21.2671 33.8429C21.8535 35.609 22.7032 37.2523 23.7658 38.7368L21.2903 41.2123L20.3226 40.2445ZM20.3226 28.0645C20.3226 28.1826 20.3381 28.2968 20.34 28.4139C19.8939 28.1971 19.3994 28.0645 18.871 28.0645H18.3871V21.7742C18.3871 20.9739 19.0384 20.3226 19.8387 20.3226H22.0548C20.9555 22.679 20.3226 25.2968 20.3226 28.0645ZM12.541 22.8648L11.6129 23.7929L10.6848 22.8648L11.4019 15.4839H11.8229L12.541 22.8648ZM5.80645 7.74194C5.80645 4.53968 8.41064 1.93548 11.6129 1.93548C14.8152 1.93548 17.4194 4.53968 17.4194 7.74194C17.4194 10.9442 14.8152 13.5484 11.6129 13.5484C8.41064 13.5484 5.80645 10.9442 5.80645 7.74194ZM8.70968 15.4839H9.45774L8.67 23.5868L11.6129 26.5297L14.5558 23.5868L13.7681 15.4839H25.3374C24.5003 16.3732 23.7542 17.3448 23.1048 18.3871H19.8387C17.971 18.3871 16.4516 19.9065 16.4516 21.7742V28.0645H7.74194C7.20871 28.0645 6.77419 27.631 6.77419 27.0968V20.3226H4.83871V26.129H1.93548V22.2581C1.93548 18.5235 4.97419 15.4839 8.70968 15.4839V15.4839ZM1.93548 28.0645H5.01677C5.41742 29.1881 6.48194 30 7.74194 30H18.871C19.6713 30 20.3226 30.6513 20.3226 31.4516C20.3226 32.2519 19.6713 32.9032 18.871 32.9032H6.77419C4.10613 32.9032 1.93548 30.7326 1.93548 28.0645ZM14.5161 58.0645C13.4487 58.0645 12.5806 57.1964 12.5806 56.129V38.7097H10.6452V56.129C10.6452 57.1964 9.7771 58.0645 8.70968 58.0645C7.64226 58.0645 6.77419 57.1964 6.77419 56.129V34.8387H16.4516V56.129C16.4516 57.1964 15.5835 58.0645 14.5161 58.0645ZM18.3871 51.8574V44.9168L20.3226 42.9813L23.7929 46.4516L18.3871 51.8574ZM24.1935 44.1155L22.6587 42.5806L24.9832 40.2561C25.4642 40.7981 25.9761 41.309 26.5181 41.791L24.1935 44.1155ZM58.0645 45.2719V49.5668L56.1784 50.0371L55.6616 50.2364L55.2106 51.3387L56.4648 53.4281L53.4281 56.4648L51.3397 55.2116L50.159 55.6916L49.5668 58.0645H45.2719L44.8006 56.1784L44.6042 55.6606L43.499 55.2116L41.4106 56.4648L38.3739 53.4281L39.6281 51.3387L39.1442 50.1581L36.7742 49.5668V46.3481C37.411 46.4148 38.0555 46.4516 38.7097 46.4516C39.3968 46.4516 40.0723 46.4071 40.74 46.3335C40.6819 46.6906 40.6452 47.0516 40.6452 47.4194C40.6452 51.1539 43.6839 54.1935 47.4194 54.1935C51.1548 54.1935 54.1935 51.1539 54.1935 47.4194C54.1935 45.0465 52.9519 42.9145 51.0039 41.6971C52.0132 40.7855 52.9239 39.7703 53.7126 38.6574L56.4648 41.4097L55.2106 43.499L55.6974 44.6797L58.0645 45.2719Z" fill="#428DFF"/>
<path d="M38.5161 42.0323C46.5203 42.0323 53.0323 35.5203 53.0323 27.5161C53.0323 19.5119 46.5203 13 38.5161 13C30.5119 13 24 19.5119 24 27.5161C24 35.5203 30.5119 42.0323 38.5161 42.0323ZM33.6774 32.3548H35.6129V39.7455C34.9471 39.5877 34.2977 39.3865 33.6774 39.1261V32.3548ZM31.7419 38.1003C31.0471 37.6542 30.3987 37.1432 29.8065 36.5732V26.5484H31.7419V38.1003ZM37.5484 40.0474V18.8065H39.4839V40.0474C39.1635 40.0726 38.8432 40.0968 38.5161 40.0968C38.189 40.0968 37.8687 40.0726 37.5484 40.0474ZM41.4194 28.4839H43.3548V39.1261C42.7345 39.3855 42.0852 39.5868 41.4194 39.7455V28.4839ZM47.2258 36.5732C46.6336 37.1432 45.9852 37.6542 45.2903 38.1003V24.6129H47.2258V36.5732ZM38.5161 14.9355C45.4529 14.9355 51.0968 20.5794 51.0968 27.5161C51.0968 29.9694 50.3806 32.2532 49.1613 34.1897V22.6774H43.3548V26.5484H41.4194V16.871H35.6129V30.4194H33.6774V24.6129H27.871V34.1897C26.6516 32.2523 25.9355 29.9684 25.9355 27.5161C25.9355 20.5794 31.5794 14.9355 38.5161 14.9355Z" fill="#428DFF"/>
</svg>
