<svg width="40" height="40" viewBox="0 0 40 40" fill="none" xmlns="http://www.w3.org/2000/svg">
<circle cx="20" cy="20" r="20" fill="#3975D1"/>
<g clip-path="url(#clip0_2:52)">
<path d="M15.8739 24.4284C16.8623 25.822 17.8491 27.0685 18.5031 27.8712C18.5983 27.9881 18.6875 28.0964 18.7739 28.2008H16.8003C16.5794 28.2008 16.4003 28.3799 16.4003 28.6008C16.4003 28.8217 16.5794 29.0008 16.8003 29.0008H23.2003C23.4212 29.0008 23.6003 28.8217 23.6003 28.6008C23.6003 28.3799 23.4212 28.2008 23.2003 28.2008H21.2267C21.3131 28.0964 21.4023 27.988 21.4979 27.8712C22.1515 27.0712 23.1379 25.822 24.1267 24.4284C25.1078 23.0735 25.9908 21.6503 26.7691 20.1696C27.5859 18.5656 28.0004 17.234 28.0004 16.2116C28.0031 14.0872 27.1601 12.0491 25.6575 10.5472C25.5572 10.4431 25.4085 10.4013 25.2686 10.4378C25.1287 10.4744 25.0194 10.5835 24.9827 10.7233C24.946 10.8631 24.9876 11.0119 25.0915 11.1124C26.444 12.4644 27.2027 14.2992 27.2003 16.2116C27.2003 17.1068 26.8155 18.3164 26.0563 19.8064C25.2956 21.2527 24.4326 22.643 23.4739 23.9664C22.4988 25.342 21.5239 26.5744 20.878 27.3664C20.6632 27.6296 20.4699 27.8624 20.3051 28.0593C20.2282 28.1471 20.1171 28.1974 20.0004 28.1974C19.8836 28.1974 19.7725 28.1471 19.6956 28.0593C19.5308 27.8625 19.3376 27.6296 19.1228 27.3664C18.4768 26.5749 17.502 25.3424 16.5268 23.9664C15.5681 22.643 14.7051 21.2527 13.9444 19.8064C13.1844 18.3164 12.8004 17.1068 12.8004 16.2116C12.8001 13.3143 14.5328 10.6978 17.2004 9.56718C18.9928 8.81559 21.012 8.81559 22.8044 9.56718C22.9361 9.62297 23.0874 9.60436 23.2016 9.51825C23.3157 9.43218 23.3752 9.29175 23.3577 9.14985C23.3403 9.00796 23.2484 8.88618 23.1168 8.8304C19.0434 7.11233 14.3485 9.02081 12.6292 13.0936C12.2122 14.0801 11.9984 15.1406 12.0004 16.2116C12.0004 17.234 12.4148 18.5656 13.2316 20.1716C14.0098 21.6516 14.8929 23.0742 15.8739 24.4284Z" fill="white"/>
<path d="M20.0002 12.6008C20.2211 12.6008 20.4002 12.4217 20.4002 12.2008C20.4002 11.9799 20.2211 11.8008 20.0002 11.8008C18.0919 11.8008 16.4493 13.1488 16.077 15.0204C15.7047 16.8921 16.7064 18.766 18.4694 19.4964C20.2324 20.2267 22.2658 19.6098 23.326 18.0232C24.3862 16.4365 24.178 14.3218 22.8286 12.9724C22.7282 12.8684 22.5795 12.8267 22.4396 12.8633C22.2998 12.8999 22.1906 13.0092 22.154 13.149C22.1173 13.2889 22.1591 13.4375 22.263 13.538C23.3426 14.6175 23.5092 16.3092 22.6611 17.5785C21.813 18.8479 20.1863 19.3414 18.7758 18.7573C17.3654 18.1731 16.564 16.6739 16.8618 15.1766C17.1595 13.6793 18.4736 12.6008 20.0002 12.6008Z" fill="white"/>
<path d="M31.8495 30.0293L29.3895 25.6293C29.167 25.2383 28.7508 24.998 28.3011 25.0009H25.4503C25.2293 25.0009 25.0503 25.1799 25.0503 25.4008C25.0503 25.6218 25.2293 25.8008 25.4503 25.8008H28.3011C28.4612 25.7977 28.6106 25.8812 28.6919 26.0192L31.1511 30.4192C31.2181 30.5337 31.2167 30.6757 31.1475 30.7889C31.0658 30.9239 30.918 31.0047 30.7603 31.0009H9.24022C9.08263 31.0046 8.93506 30.9237 8.85341 30.7889C8.78422 30.6757 8.78286 30.5337 8.8498 30.4192L11.309 26.0192C11.3902 25.8813 11.5394 25.7978 11.6994 25.8008H14.5502C14.7711 25.8008 14.9502 25.6218 14.9502 25.4008C14.9502 25.1799 14.7711 25.0009 14.5502 25.0009H11.6994C11.2494 24.9979 10.8329 25.2382 10.6102 25.6293L8.15061 30.0293C7.94553 30.3915 7.95026 30.8359 8.16303 31.1937C8.38719 31.5747 8.79824 31.8064 9.24022 31.8009H30.7603C31.2021 31.8063 31.613 31.5746 31.8371 31.1937C32.0499 30.8359 32.0546 30.3915 31.8495 30.0293Z" fill="white"/>
<path d="M27.6003 27.0008H26.0003C25.9213 27.0009 25.8441 27.0243 25.7783 27.068L24.5783 27.868C24.3945 27.9907 24.3449 28.2391 24.4675 28.4229C24.5901 28.6067 24.8385 28.6563 25.0223 28.5337L26.1203 27.8009H27.6003C27.8212 27.8009 28.0003 27.6218 28.0003 27.4009C28.0003 27.1799 27.8212 27.0008 27.6003 27.0008Z" fill="white"/>
<path d="M25.2003 29.8009C25.2003 30.0218 25.3793 30.2009 25.6003 30.2009H28.8003C29.0212 30.2009 29.2003 30.0218 29.2003 29.8009C29.2003 29.5799 29.0212 29.4009 28.8003 29.4009H25.6003C25.3793 29.4009 25.2003 29.5799 25.2003 29.8009Z" fill="white"/>
<path d="M15.2002 28.6009C15.3765 28.6011 15.5322 28.4858 15.5834 28.317C15.6347 28.1483 15.5693 27.9659 15.4226 27.8681L14.2226 27.068C14.1567 27.0243 14.0793 27.0009 14.0002 27.0008H12.4002C12.1793 27.0008 12.0002 27.1799 12.0002 27.4008C12.0002 27.6217 12.1793 27.8008 12.4002 27.8008H13.8802L14.9794 28.5336C15.0448 28.5773 15.1216 28.6007 15.2002 28.6009Z" fill="white"/>
<path d="M11.2002 29.4009C10.9793 29.4009 10.8002 29.5799 10.8002 29.8009C10.8002 30.0218 10.9793 30.2009 11.2002 30.2009H14.4002C14.6212 30.2009 14.8002 30.0218 14.8002 29.8009C14.8002 29.5799 14.6212 29.4009 14.4002 29.4009H11.2002Z" fill="white"/>
</g>
<defs>
<clipPath id="clip0_2:52">
<rect width="24" height="24" fill="white" transform="translate(8 8)"/>
</clipPath>
</defs>
</svg>
