<svg width="40" height="40" viewBox="0 0 40 40" fill="none" xmlns="http://www.w3.org/2000/svg">
<circle cx="20" cy="20" r="20" fill="#3975D1"/>
<g clip-path="url(#clip0_1:25)">
<path d="M27.4489 29.0323L26.5528 26.3435C26.2396 25.4048 25.4406 24.7119 24.4667 24.5346L21.8797 24.0639V23.8634C22.3299 23.6021 22.7217 23.2525 23.0337 22.8387H23.8152C24.4555 22.8387 24.9765 22.3177 24.9765 21.6774V17.0323C24.9765 14.2575 22.719 12 19.9443 12C17.1695 12 14.912 14.2575 14.912 17.0323V19.7419C14.912 20.4883 15.4427 21.1126 16.1465 21.2582C16.3636 22.3707 17.0588 23.3121 18.0088 23.8634V24.0639L15.4214 24.5346C14.4479 24.7119 13.6485 25.4048 13.3357 26.3435L13.1809 26.8084L11.8625 25.4899C11.7115 25.339 11.7115 25.0932 11.8625 24.9422L13.3915 23.4135L10.5215 20.5436L8.79355 22.2716C8.28181 22.7834 8 23.4639 8 24.1877C8 24.9116 8.28181 25.5917 8.79355 26.1035L14.0252 31.3351C14.5369 31.8468 15.2174 32.129 15.9413 32.129C16.6652 32.129 17.3453 31.8468 17.845 31.3467L19.7306 29.6191L19.1426 29.0323H27.4489ZM24.2023 21.6774C24.2023 21.8911 24.0285 22.0645 23.8152 22.0645H23.4897C23.6019 21.8086 23.6871 21.5388 23.7421 21.2582C23.9077 21.2237 24.0603 21.1579 24.2023 21.0751V21.6774ZM23.8152 20.4085V19.0754C24.0456 19.2097 24.2023 19.4566 24.2023 19.7419C24.2023 20.0272 24.0456 20.2742 23.8152 20.4085ZM16.0733 20.4085C15.843 20.2742 15.6862 20.0272 15.6862 19.7419C15.6862 19.4566 15.843 19.2097 16.0733 19.0754V20.4085ZM16.0733 17.8065V18.2485C15.9355 18.2845 15.8062 18.3387 15.6862 18.4088V17.0323C15.6862 14.6845 17.5965 12.7742 19.9443 12.7742C22.292 12.7742 24.2023 14.6845 24.2023 17.0323V18.4088C24.0823 18.3387 23.953 18.2841 23.8152 18.2485V17.8065H23.4281C22.2835 17.8065 21.2074 17.3605 20.3975 16.5511L19.9443 16.0978L19.491 16.5511C18.6812 17.3605 17.605 17.8065 16.4604 17.8065H16.0733ZM16.8475 20.5161V18.5659C18.0099 18.4785 19.0938 17.9988 19.9443 17.1902C20.7947 17.9988 21.8786 18.4788 23.041 18.5659V20.5161C23.041 21.0805 22.887 21.6085 22.6222 22.0645H19.9443V22.8387H21.9858C21.44 23.3191 20.7266 23.6129 19.9443 23.6129C18.2368 23.6129 16.8475 22.2236 16.8475 20.5161ZM21.1056 24.2086V24.2268L19.9443 25.3881L18.783 24.2268V24.2086C19.1499 24.324 19.5397 24.3871 19.9443 24.3871C20.3488 24.3871 20.7386 24.324 21.1056 24.2086ZM14.0697 26.5881C14.293 25.9177 14.864 25.4226 15.5596 25.2956L18.2654 24.804L19.9443 26.4828L21.6227 24.8044L24.3281 25.296C25.0237 25.423 25.5947 25.9177 25.8181 26.5885L26.3751 28.2581H18.3684L16.8606 26.7503L15.1853 28.2658C15.0394 28.4125 14.7843 28.4125 14.6379 28.2658L13.7925 27.4204L14.0697 26.5881ZM10.5212 21.6383L12.2964 23.4135L11.876 23.8339L10.1008 22.0587L10.5212 21.6383ZM17.3089 30.7885C16.9435 31.1532 16.4573 31.3548 15.9405 31.3548C15.4237 31.3548 14.9375 31.1532 14.5717 30.7877L9.34013 25.5565C8.97471 25.1911 8.77342 24.7049 8.77342 24.1881C8.77342 23.671 8.97471 23.1848 9.34013 22.8194L9.55303 22.6065L11.3283 24.3817L11.3143 24.3956C10.8618 24.8485 10.8618 25.5852 11.3143 26.0381L14.0902 28.8139C14.3097 29.033 14.6012 29.1542 14.9116 29.1542C15.2221 29.1542 15.5135 29.0334 15.7187 28.8275L15.7477 28.8015L17.5311 30.5849L17.3089 30.7885ZM18.1025 30.0608L16.323 28.2813L16.8343 27.8191L18.6107 29.5955L18.1025 30.0608Z" fill="white"/>
<path d="M30.811 8H25.3917C24.7514 8 24.2304 8.52103 24.2304 9.16129V12.2581C24.2304 12.8983 24.7514 13.4194 25.3917 13.4194H26.4256L26.0253 15.7539L29.7608 13.4194H30.811C31.4513 13.4194 31.9723 12.8983 31.9723 12.2581V9.16129C31.9723 8.52103 31.4513 8 30.811 8ZM31.1981 12.2581C31.1981 12.4714 31.0243 12.6452 30.811 12.6452H29.5386L27.0802 14.1815L27.3438 12.6452H25.3917C25.1784 12.6452 25.0046 12.4714 25.0046 12.2581V9.16129C25.0046 8.948 25.1784 8.77419 25.3917 8.77419H30.811C31.0243 8.77419 31.1981 8.948 31.1981 9.16129V12.2581Z" fill="white"/>
<path d="M30.4239 9.5484H25.7788V10.3226H30.4239V9.5484Z" fill="white"/>
<path d="M28.8755 11.0968H25.7788V11.871H28.8755V11.0968Z" fill="white"/>
<path d="M30.4239 11.0968H29.6497V11.871H30.4239V11.0968Z" fill="white"/>
<path d="M19.9723 9.16134C14.9145 9.16134 10.5577 12.6599 9.42507 17.5401L8.69152 16.3172L8.02765 16.7155L9.38829 18.9828L11.6555 17.6221L11.2572 16.9582L10.2082 17.5877C11.3052 13.1233 15.3198 9.93554 19.9723 9.93554C20.9892 9.93554 21.9925 10.0865 22.9545 10.3846L23.1836 9.64521C22.1474 9.32392 21.067 9.16134 19.9723 9.16134Z" fill="white"/>
<path d="M31.7842 16.5711L29.517 15.2104L28.1567 17.478L28.8206 17.8764L29.498 16.7472C29.8545 17.7904 30.0369 18.8817 30.0369 20C30.0369 22.302 29.2394 24.5526 27.7921 26.3368L28.3932 26.8245C29.9525 24.9029 30.811 22.4789 30.811 20C30.811 18.8159 30.6202 17.6596 30.2482 16.5525L31.3859 17.2349L31.7842 16.5711Z" fill="white"/>
</g>
<defs>
<clipPath id="clip0_1:25">
<rect width="24" height="24" fill="white" transform="translate(8 8)"/>
</clipPath>
</defs>
</svg>
