<svg width="40" height="40" viewBox="0 0 40 40" fill="none" xmlns="http://www.w3.org/2000/svg">
<circle cx="20" cy="20" r="20" fill="#3975D1"/>
<g clip-path="url(#clip0_2:61)">
<path d="M31.9957 17.1772C31.9932 17.1496 31.9877 17.1224 31.9793 17.096C31.9738 17.0724 31.9661 17.0494 31.9565 17.0271C31.9453 17.0054 31.9319 16.9849 31.9165 16.9659C31.9011 16.9434 31.8832 16.9226 31.8633 16.9039C31.8569 16.8983 31.8541 16.8907 31.8473 16.8851L28.0003 13.8974V10.8008C28.0003 10.1381 27.463 9.60078 26.8003 9.60078H22.4652L20.7295 8.25311C20.3007 7.91868 19.6994 7.91868 19.2706 8.25311L17.5345 9.60078H13.1995C12.5367 9.60078 11.9994 10.138 11.9994 10.8008V13.8974L8.15366 16.8852C8.14686 16.8908 8.14405 16.8984 8.13767 16.904C8.11775 16.9226 8.09989 16.9434 8.08446 16.966C8.06909 16.985 8.05568 17.0054 8.04448 17.0272C8.03477 17.0494 8.02718 17.0724 8.0217 17.096C8.01335 17.122 8.00787 17.1488 8.00529 17.176C8.00529 17.1844 8.00051 17.1916 8.00051 17.2V30.8018C8.00107 31.0563 8.08339 31.3038 8.23532 31.5079C8.23771 31.5115 8.23813 31.5159 8.24089 31.5191C8.24371 31.5222 8.24971 31.5259 8.25369 31.5303C8.47842 31.826 8.82794 32.0003 9.19935 32.0019H30.8004C31.1733 32.0008 31.5243 31.8256 31.7493 31.5283C31.7525 31.5243 31.7573 31.5231 31.7601 31.5191C31.7629 31.5151 31.7633 31.5115 31.7657 31.5079C31.9176 31.3038 31.9999 31.0563 32.0005 30.8019V17.2012C32.0005 17.1928 31.9961 17.1855 31.9957 17.1772ZM19.7598 8.88431C19.8995 8.7733 20.0974 8.7733 20.237 8.88431L21.1599 9.60074H18.8398L19.7598 8.88431ZM9.30014 31.2019L19.7599 23.077C19.8997 22.9662 20.0974 22.9662 20.2371 23.077L30.6996 31.2019H9.30014ZM31.2004 30.5782L20.7295 22.4458C20.3006 22.1117 19.6995 22.1117 19.2706 22.4458L8.7993 30.5782V17.8104L15.3544 22.9007C15.5291 23.0361 15.7805 23.0043 15.9159 22.8296C16.0513 22.655 16.0195 22.4036 15.8449 22.2682L9.18533 17.0971L11.9995 14.9102V18.0012C11.9995 18.2221 12.1786 18.4012 12.3995 18.4012C12.6204 18.4012 12.7995 18.2221 12.7995 18.0012V10.8008C12.7995 10.5799 12.9786 10.4008 13.1995 10.4008H26.8002C27.0211 10.4008 27.2002 10.5799 27.2002 10.8008V18.0012C27.2002 18.2221 27.3792 18.4012 27.6002 18.4012C27.8211 18.4012 28.0002 18.2221 28.0002 18.0012V14.9102L30.8143 17.0971L24.1432 22.2774C24.0284 22.3644 23.9692 22.5063 23.9883 22.6491C24.0073 22.7918 24.1016 22.9133 24.2351 22.9672C24.3687 23.021 24.5209 22.999 24.6336 22.9094L31.2004 17.8104V30.5782H31.2004Z" fill="white"/>
<path d="M24.7996 17.5992V15.9991C24.7996 13.348 22.6505 11.1989 19.9994 11.1989C17.3483 11.1989 15.1992 13.348 15.1992 15.9991C15.1992 18.6502 17.3483 20.7994 19.9994 20.7994C20.2203 20.7994 20.3994 20.6203 20.3994 20.3994C20.3994 20.1784 20.2203 19.9994 19.9994 19.9994C17.7902 19.9994 15.9992 18.2084 15.9992 15.9992C15.9992 13.7899 17.7902 11.999 19.9994 11.999C22.2086 11.999 23.9996 13.7899 23.9996 15.9992V17.5992C23.9996 18.0411 23.6414 18.3993 23.1995 18.3993C22.7577 18.3993 22.3995 18.0411 22.3995 17.5992V15.9992C22.3995 15.7782 22.2204 15.5992 21.9995 15.5992C21.7785 15.5992 21.5995 15.7782 21.5995 15.9992C21.5995 16.8829 20.8831 17.5992 19.9994 17.5992C19.1157 17.5992 18.3993 16.8829 18.3993 15.9992C18.3993 15.1155 19.1157 14.3991 19.9994 14.3991C20.2203 14.3991 20.3994 14.22 20.3994 13.9991C20.3994 13.7782 20.2203 13.5991 19.9994 13.5991C18.9252 13.5967 17.9802 14.3083 17.6858 15.3414C17.3914 16.3745 17.8193 17.4774 18.7334 18.0416C19.6475 18.6058 20.8251 18.494 21.6167 17.7677C21.7038 18.6137 22.439 19.2427 23.2883 19.1977C24.1375 19.1527 24.8023 18.4496 24.7996 17.5992Z" fill="white"/>
</g>
<defs>
<clipPath id="clip0_2:61">
<rect x="8" y="8" width="24" height="24" fill="white"/>
</clipPath>
</defs>
</svg>
